<?xml version="1.0" encoding="UTF-8"?>
<svg version="1.1" xmlns="http://www.w3.org/2000/svg" width="1024" height="1024">
<path d="M0 0 C1.75539261 0.83233944 3.51175056 1.66264588 5.26904297 2.4909668 C7.89208614 3.72742471 10.51463694 4.96476983 13.13430786 6.20835876 C19.87276554 9.40592628 26.65755658 12.4679341 33.5 15.4375 C35.46367492 16.29396537 37.42721689 17.15073566 39.390625 18.0078125 C40.8456543 18.64251465 40.8456543 18.64251465 42.33007812 19.29003906 C59.42416248 26.78446283 76.40447098 34.53576561 93.3710022 42.31344604 C105.53541903 47.88879673 117.73009135 53.39449304 129.9375 58.875 C151.33237657 68.48433838 172.61474691 78.31933878 193.84100342 88.29522705 C201.70009969 91.98767025 209.56894376 95.65145146 217.5 99.1875 C225.39321072 102.71220035 233.25542011 106.30264823 241.09857178 109.93722534 C242.43058216 110.55364273 243.76344547 111.16822099 245.097229 111.78079224 C264.60883607 120.74789838 264.60883607 120.74789838 266.625 125.6875 C266.30134157 129.49048658 265.23188214 130.17274771 262.375 132.625 C259.72761154 134.19478989 259.72761154 134.19478989 256.65496826 135.7255249 C255.48831635 136.31160019 254.32166443 136.89767548 253.11965942 137.50151062 C251.83082322 138.13885146 250.54191074 138.77603809 249.25292969 139.41308594 C247.89240734 140.09278269 246.53223736 140.77318515 245.1723938 141.45423889 C241.4862138 143.2979022 237.79518758 145.13166443 234.1032095 146.96368313 C230.24329421 148.88112987 226.38791444 150.80765251 222.53204346 152.73321533 C215.23259349 156.37672661 207.92910367 160.01206216 200.62412572 163.64447522 C192.30664767 167.78085186 183.99371637 171.92632661 175.68115377 176.07257032 C158.58414057 184.6001774 141.48145336 193.11634713 124.375 201.625 C124.36913376 202.74729004 124.36326752 203.86958008 124.35722351 205.02587891 C124.29993008 215.61915081 124.22713374 226.21221874 124.13928509 236.80528259 C124.09461948 242.25086986 124.05535483 247.69638297 124.02856445 253.14208984 C124.00249366 258.4006875 123.96206423 263.6589992 123.91181374 268.91741943 C123.8951706 270.92035354 123.88364046 272.92333708 123.87738609 274.92633057 C123.86771729 277.73895007 123.83962466 280.5508422 123.80737305 283.36328125 C123.80880814 284.18543625 123.81024323 285.00759125 123.8117218 285.85466003 C123.70356743 292.55436709 122.44085332 299.31145847 117.4375 304.1875 C78.84783945 339.4215379 0.97657011 336.50266881 -47.40625 334.3125 C-82.5512817 332.37590378 -130.17242096 328.79876622 -157.56640625 303.96875 C-163.37729218 297.35294059 -163.77666767 290.51090602 -163.73852539 282.07104492 C-163.73867142 281.22175415 -163.73881744 280.37246338 -163.7389679 279.49743652 C-163.73827319 276.70008763 -163.73050149 273.90280596 -163.72265625 271.10546875 C-163.7207905 269.1620538 -163.71936734 267.21863837 -163.71836853 265.27522278 C-163.71455571 260.16739599 -163.70473597 255.05959776 -163.69366455 249.95178223 C-163.68342387 244.73673896 -163.67886522 239.52169106 -163.67382812 234.30664062 C-163.6631126 224.07941455 -163.64605101 213.85220965 -163.625 203.625 C-164.5437793 203.32859619 -165.46255859 203.03219238 -166.40917969 202.72680664 C-170.06975749 201.47261687 -173.44156398 199.8249538 -176.875 198.0625 C-182.96169562 194.96616805 -189.06221797 191.89840999 -195.171875 188.84765625 C-195.99091309 188.43841919 -196.80995117 188.02918213 -197.65380859 187.60754395 C-199.64408958 186.61312983 -201.63448799 185.61895158 -203.625 184.625 C-203.65652931 195.30896087 -203.65033654 205.99217941 -203.59653378 216.67607117 C-203.57272162 221.63761165 -203.56170241 226.59848151 -203.58032227 231.56005859 C-203.59782856 236.3521137 -203.58120407 241.14296647 -203.54132271 245.93487549 C-203.53205806 247.75919524 -203.53490779 249.58361966 -203.55030632 251.40789795 C-204.01747915 262.81976344 -204.01747915 262.81976344 -199.13110352 272.68359375 C-197.98052265 273.68526488 -196.81557057 274.67120594 -195.625 275.625 C-193.97126295 278.93247411 -194.45036162 282.62478082 -194.43212891 286.26220703 C-194.42395142 287.1567308 -194.41577393 288.05125458 -194.40734863 288.97288513 C-194.38247221 291.94285408 -194.3659701 294.91277506 -194.3515625 297.8828125 C-194.34357698 299.40412592 -194.34357698 299.40412592 -194.33543015 300.95617294 C-194.30868485 306.32754511 -194.28931705 311.69889396 -194.27490234 317.0703125 C-194.25827927 322.61197949 -194.21352481 328.15304892 -194.1625309 333.69449043 C-194.12882412 337.95997782 -194.11732094 342.22532424 -194.11167526 346.49093246 C-194.10496898 348.53302434 -194.0897632 350.57510714 -194.06578445 352.61706924 C-194.03406589 355.48234446 -194.03410664 358.34602015 -194.04150391 361.21142578 C-194.02509857 362.04914017 -194.00869324 362.88685455 -193.99179077 363.74995422 C-194.05605521 369.85791582 -195.80820342 373.86370324 -199.625 378.625 C-204.69571025 383.32468268 -209.59780952 385.72109833 -216.625 385.625 C-223.31397313 384.40326975 -228.73991002 382.47843155 -232.91026306 376.90835571 C-238.23896922 368.07375712 -237.33033846 358.42555856 -237.25390625 348.4609375 C-237.25473615 346.49899158 -237.25720009 344.53704574 -237.26121521 342.57510376 C-237.26406297 338.47823982 -237.24946947 334.38192569 -237.22192383 330.28515625 C-237.18779781 325.04859564 -237.19388415 319.81301438 -237.2125864 314.57640648 C-237.22318041 310.53046582 -237.2141975 306.48475101 -237.19920158 302.43883133 C-237.19403999 300.50843604 -237.19447686 298.57801698 -237.20074654 296.64762497 C-237.20622971 293.94604909 -237.18572691 291.24585208 -237.15844727 288.54443359 C-237.16497314 287.75669052 -237.17149902 286.96894745 -237.17822266 286.15733337 C-237.08344306 280.60509409 -235.89899263 276.18130364 -232.625 271.625 C-231.04946804 270.33539867 -231.04946804 270.33539867 -229.41757202 269.19404602 C-226.46632203 266.4790231 -226.21079027 266.20053553 -225.9034729 262.49308777 C-225.88615366 260.83551558 -225.90187339 259.17739483 -225.94384766 257.52026367 C-225.9429715 256.61245148 -225.94209534 255.70463928 -225.94119263 254.76931763 C-225.94536434 251.77631819 -225.99199665 248.78557535 -226.0390625 245.79296875 C-226.05025612 243.7150444 -226.05879552 241.63710419 -226.06478882 239.55915833 C-226.08767391 234.09579583 -226.14659526 228.63339375 -226.2130127 223.17041016 C-226.27444161 217.59355664 -226.30180519 212.0165476 -226.33203125 206.43945312 C-226.39633809 195.50088062 -226.49871443 184.56302024 -226.625 173.625 C-227.62372131 173.14078583 -228.62244263 172.65657166 -229.65142822 172.15768433 C-233.41235671 170.33402191 -237.17282523 168.50941268 -240.9331665 166.68453979 C-242.5503131 165.89990459 -244.16757878 165.11551474 -245.78497314 164.33139038 C-255.00955957 159.85902588 -264.22165185 155.36704565 -273.375 150.75 C-281.86641301 146.47033745 -290.42445885 142.34692554 -299.04199219 138.32666016 C-310.16993834 133.08006166 -310.16993834 133.08006166 -314.625 128.625 C-314.42005388 125.96070046 -314.11337948 124.22016686 -312.40014648 122.13232422 C-310.21265472 120.27486663 -308.00270999 119.1795223 -305.41015625 117.9453125 C-304.34627686 117.43556885 -303.28239746 116.9258252 -302.1862793 116.40063477 C-301.03168213 115.85592529 -299.87708496 115.31121582 -298.6875 114.75 C-297.47092388 114.17088241 -296.2545372 113.59136671 -295.03833008 113.01147461 C-283.14205968 107.35153526 -271.18545109 101.82005702 -259.22705078 96.29296875 C-253.06170653 93.43803911 -246.90598031 90.56255013 -240.75 87.6875 C-239.48438551 87.09665718 -238.21876048 86.50583692 -236.953125 85.91503906 C-230.80269093 83.04380285 -224.6530668 80.17083775 -218.50390625 77.296875 C-204.05633993 70.54671784 -189.59537246 63.82613293 -175.125 57.125 C-163.09789174 51.55508227 -151.07300986 45.98063395 -139.0625 40.375 C-137.8763208 39.82158936 -136.6901416 39.26817871 -135.46801758 38.69799805 C-129.15507085 35.74983081 -122.8482066 32.78929117 -116.546875 29.81640625 C-113.80245384 28.52264982 -111.05763399 27.22974322 -108.3125 25.9375 C-107.64217743 25.62187103 -106.97185486 25.30624207 -106.28121948 24.98104858 C-96.26665021 20.27128275 -86.18227885 15.75125872 -76.03027344 11.34399414 C-69.6419094 8.55658357 -63.38847837 5.59089602 -57.18603516 2.41381836 C-52.5226379 0.03629086 -47.79479353 -2.15031557 -43 -4.25 C-42.34829834 -4.53649414 -41.69659668 -4.82298828 -41.02514648 -5.11816406 C-39.23446929 -5.89248578 -37.42996839 -6.63460277 -35.625 -7.375 C-34.25214844 -7.99761719 -34.25214844 -7.99761719 -32.8515625 -8.6328125 C-20.81269674 -11.40204312 -10.51696457 -5.08232545 0 0 Z " fill="#D74C98" transform="translate(539.625,253.375)"/>
<path d="M0 0 C0.91773193 0.3242395 0.91773193 0.3242395 1.85400391 0.6550293 C37.23480519 13.05576629 72.70746976 17.57139549 110 19 C110.90717773 19.03609375 111.81435547 19.0721875 112.74902344 19.109375 C117.84561858 19.28444053 122.90536546 19.2071516 128 19 C129.18287598 18.95359375 130.36575195 18.9071875 131.58447266 18.859375 C159.06631307 17.72437942 185.68490958 14.60878496 212.36865234 7.65527344 C214.94988575 7.01247974 217.53756427 6.47235647 220.14453125 5.9453125 C222.05298828 5.47738281 222.05298828 5.47738281 224 5 C224.33 4.34 224.66 3.68 225 3 C232.34482269 0.71226834 232.34482269 0.71226834 237 2 C237.02331074 15.60564941 237.04100962 29.21129396 237.05181217 42.81695938 C237.05700041 49.13660647 237.06402307 55.45623976 237.07543945 61.77587891 C237.08641417 67.89024743 237.09230729 74.00460279 237.09487724 80.11898041 C237.0967055 82.43580075 237.10027466 84.75262048 237.10573006 87.06943512 C237.13066833 98.11331074 237.10115515 109.15032414 236.65014648 120.18652344 C236.62385949 120.98970127 236.5975725 121.7928791 236.57048893 122.62039566 C236.2215575 129.76544445 233.91744314 135.02465952 230 141 C229.34773437 142.04542969 228.69546875 143.09085938 228.0234375 144.16796875 C226.55422967 146.50444574 225.05667213 148.81968759 223.5390625 151.125 C220.72365888 155.40459071 217.98336431 159.73018215 215.25 164.0625 C214.74718506 164.85841553 214.24437012 165.65433105 213.72631836 166.47436523 C209.92607157 172.50174453 206.17694173 178.55976738 202.4375 184.625 C198.09941682 191.65995483 193.67702213 198.6295706 189.16162109 205.55175781 C184.97404186 211.99255994 180.93667478 218.52256546 176.90625 225.0625 C172.82317423 231.68422572 168.68374839 238.26796923 164.51757812 244.83764648 C160.82063284 250.67680925 157.18573281 256.5523897 153.5625 262.4375 C147.66739345 271.99768255 141.59746767 281.43536608 135.42773438 290.8203125 C134.12366261 292.81120729 132.83277176 294.80983882 131.546875 296.8125 C130.85078125 297.885 130.1546875 298.9575 129.4375 300.0625 C128.85871094 300.96097656 128.27992188 301.85945313 127.68359375 302.78515625 C125.94739019 305.06921058 124.45294421 306.52067141 122 308 C115.27008547 308.86837607 115.27008547 308.86837607 111.09765625 306.015625 C107.31639988 302.65978968 104.89514865 298.55094486 102.3125 294.25 C101.25355687 292.52936122 100.19364241 290.80931991 99.1328125 289.08984375 C98.6059082 288.22987793 98.07900391 287.36991211 97.53613281 286.48388672 C95.31216927 282.88779563 93.00239579 279.35044104 90.6875 275.8125 C84.90416485 266.92565349 79.30681121 257.9241269 73.69921875 248.92578125 C70.44609548 243.70752651 67.16650293 238.5066026 63.875 233.3125 C59.70855291 226.73360534 55.59138329 220.12582019 51.5 213.5 C47.12700079 206.42310537 42.73897925 199.35609472 38.3125 192.3125 C37.8071875 191.50425781 37.301875 190.69601562 36.78125 189.86328125 C36.07935547 188.74953125 36.07935547 188.74953125 35.36328125 187.61328125 C34.74900269 186.63548706 34.74900269 186.63548706 34.12231445 185.63793945 C32.96754379 183.84512575 32.96754379 183.84512575 31 182 C30.06841182 180.366717 29.17380853 178.71219577 28.30078125 177.046875 C25.19297542 171.26271986 21.75636539 165.75801482 18.1875 160.25 C13.97508057 153.68551631 9.7787719 147.11671264 5.75 140.4375 C5.39188232 139.84936523 5.03376465 139.26123047 4.66479492 138.65527344 C1.68534121 133.67657478 -0.21217285 129.53495355 -0.40939331 123.69667053 C-0.44746157 122.66783721 -0.48552982 121.63900389 -0.52475166 120.5789938 C-0.55509436 119.47663922 -0.58543705 118.37428465 -0.61669922 117.23852539 C-0.65429792 116.08371957 -0.69189663 114.92891375 -0.73063469 113.73911381 C-1.08810886 101.88763124 -1.14568406 90.03951645 -1.1328125 78.18359375 C-1.13348875 75.93628428 -1.13446143 73.68897488 -1.13571167 71.44166565 C-1.13716595 66.79923791 -1.13510349 62.15682973 -1.13037109 57.5144043 C-1.12459096 51.55374115 -1.12801838 45.59312223 -1.13394356 39.63246059 C-1.13754036 35.02331705 -1.13641612 30.41418421 -1.13381577 25.80504036 C-1.13314832 23.60369931 -1.13396855 21.4023573 -1.13629532 19.20101738 C-1.13881619 16.15538778 -1.13499319 13.10983296 -1.12939453 10.06420898 C-1.13141876 9.1548761 -1.13344299 8.24554321 -1.13552856 7.30865479 C-1.11428026 1.11428026 -1.11428026 1.11428026 0 0 Z " fill="#F37969" transform="translate(401,589)"/>
<path d="M0 0 C0.02331074 13.60564941 0.04100962 27.21129396 0.05181217 40.81695938 C0.05700041 47.13660647 0.06402307 53.45623976 0.07543945 59.77587891 C0.08641417 65.89024743 0.09230729 72.00460279 0.09487724 78.11898041 C0.0967055 80.43580075 0.10027466 82.75262048 0.10573006 85.06943512 C0.13066833 96.11331074 0.10115515 107.15032414 -0.34985352 118.18652344 C-0.37614051 118.98970127 -0.4024275 119.7928791 -0.42951107 120.62039566 C-0.7784425 127.76544445 -3.08255686 133.02465952 -7 139 C-7.65226563 140.04542969 -8.30453125 141.09085938 -8.9765625 142.16796875 C-10.44577033 144.50444574 -11.94332787 146.81968759 -13.4609375 149.125 C-16.27634112 153.40459071 -19.01663569 157.73018215 -21.75 162.0625 C-22.25281494 162.85841553 -22.75562988 163.65433105 -23.27368164 164.47436523 C-27.07392843 170.50174453 -30.82305827 176.55976738 -34.5625 182.625 C-38.90058318 189.65995483 -43.32297787 196.6295706 -47.83837891 203.55175781 C-52.02595814 209.99255994 -56.06332522 216.52256546 -60.09375 223.0625 C-64.17682577 229.68422572 -68.31625161 236.26796923 -72.48242188 242.83764648 C-76.17936716 248.67680925 -79.81426719 254.5523897 -83.4375 260.4375 C-89.33260655 269.99768255 -95.40253233 279.43536608 -101.57226562 288.8203125 C-102.87633739 290.81120729 -104.16722824 292.80983882 -105.453125 294.8125 C-106.14921875 295.885 -106.8453125 296.9575 -107.5625 298.0625 C-108.14128906 298.96097656 -108.72007812 299.85945313 -109.31640625 300.78515625 C-111.05260981 303.06921058 -112.54705579 304.52067141 -115 306 C-121.72991453 306.86837607 -121.72991453 306.86837607 -125.90234375 304.015625 C-129.68358246 300.65980535 -132.10490558 296.55099297 -134.6875 292.25 C-135.7321304 290.55280493 -136.77772517 288.85620311 -137.82421875 287.16015625 C-138.6119165 285.87455811 -138.6119165 285.87455811 -139.41552734 284.56298828 C-141.8859382 280.56693694 -144.43936843 276.62612634 -147 272.6875 C-147.44432373 272.00139648 -147.88864746 271.31529297 -148.34643555 270.60839844 C-148.76836182 269.95774414 -149.19028809 269.30708984 -149.625 268.63671875 C-150.22272217 267.71403198 -150.22272217 267.71403198 -150.83251953 266.77270508 C-151.60558112 265.59888655 -152.39294284 264.43435179 -153.19482422 263.2800293 C-155.98766031 259.25296362 -155.98766031 259.25296362 -156.125 256.4375 C-153.29386436 250.30337278 -147.51026289 248.1226028 -141.5625 245.796875 C-134.84492943 243.7078744 -128.21908431 243.84931541 -121.25 243.875 C-120.21617187 243.87113281 -119.18234375 243.86726562 -118.1171875 243.86328125 C-111.68461269 243.87138273 -105.38553729 244.22088636 -99 245 C-98.66935547 244.02546875 -98.66935547 244.02546875 -98.33203125 243.03125 C-96.52148165 238.91105501 -94.12385498 235.27555377 -91.6875 231.5 C-90.598026 229.79486618 -89.50951867 228.08911441 -88.421875 226.3828125 C-87.85791016 225.49883789 -87.29394531 224.61486328 -86.71289062 223.70410156 C-83.9142001 219.28587234 -81.17837672 214.82923231 -78.4375 210.375 C-74.02743607 203.2225709 -69.53279325 196.13408254 -64.94848633 189.09228516 C-60.68073319 182.53044985 -56.52377643 175.90324476 -52.39794922 169.25146484 C-50.82218929 166.71362725 -49.24109222 164.17914743 -47.66015625 161.64453125 C-46.50241143 159.78397408 -45.34485755 157.92329809 -44.1875 156.0625 C-43.64818848 155.19850586 -43.10887695 154.33451172 -42.55322266 153.44433594 C-39.20403604 148.04778874 -36.02891167 142.58268339 -33 137 C-33.67981934 136.78569336 -34.35963867 136.57138672 -35.06005859 136.35058594 C-41.01604427 134.42683951 -46.43180577 131.8581282 -51.875 128.8125 C-52.79055664 128.30601929 -52.79055664 128.30601929 -53.72460938 127.78930664 C-55.00573256 127.05669324 -56.26725767 126.28889411 -57.50846863 125.49052429 C-60.06447413 123.89548867 -60.06447413 123.89548867 -63.22712708 122.55145264 C-72.01678956 117.92305478 -72.01678956 117.92305478 -73.72842407 112.83441734 C-74.8695478 106.16940122 -74.48916885 99.41261292 -74.26953125 92.68359375 C-74.2452608 90.49932848 -74.22676702 88.31499206 -74.21379089 86.13063049 C-74.1643356 80.40271925 -74.03681592 74.67914737 -73.89263916 68.95294189 C-73.7592452 63.10138659 -73.70019392 57.24912439 -73.63476562 51.39648438 C-73.49566806 39.92909093 -73.27403354 28.46490733 -73 17 C-74.65 17 -76.3 17 -78 17 C-74.78367689 14.85578459 -73.22714962 14.58928756 -69.4609375 14.140625 C-68.33469971 13.99737793 -67.20846191 13.85413086 -66.0480957 13.70654297 C-64.83597412 13.55588379 -63.62385254 13.40522461 -62.375 13.25 C-49.54512453 11.54954491 -37.14656549 8.9166117 -24.63134766 5.65527344 C-22.05011425 5.01247974 -19.46243573 4.47235647 -16.85546875 3.9453125 C-14.94701172 3.47738281 -14.94701172 3.47738281 -13 3 C-12.67 2.34 -12.34 1.68 -12 1 C-4.65517731 -1.28773166 -4.65517731 -1.28773166 0 0 Z " fill="#DE5185" transform="translate(638,591)"/>
<path d="M0 0 C4.17155027 0.42708729 7.36576617 3.04006724 10.75 5.3125 C22.9090019 13.26640305 33.76108102 17.55392918 48.5625 17.375 C49.52607422 17.38660156 50.48964844 17.39820313 51.48242188 17.41015625 C60.70086199 17.3728598 68.41965079 15.20668745 76.5 10.75 C77.59828125 10.14929688 78.6965625 9.54859375 79.828125 8.9296875 C83.64084184 6.61012824 87.04186488 3.93762979 90.390625 0.9921875 C94.02107913 -0.38825464 96.063307 0.53037956 99.609375 1.89599609 C103.58156949 3.73037758 107.20888438 5.99815568 110.875 8.375 C117.38673189 12.47921354 123.83128031 16.13994085 131 19 C131.92167969 19.36996094 132.84335937 19.73992188 133.79296875 20.12109375 C134.52128906 20.41113281 135.24960937 20.70117188 136 21 C125.63117632 39.39363137 114.27692898 57.1597138 102.92724609 74.95874023 C96.14891984 85.59042036 89.43730702 96.26202658 82.765625 106.9609375 C82.1586377 107.89542725 81.55165039 108.82991699 80.92626953 109.79272461 C79.44306957 112.26228074 78.23273248 114.60571251 77.03857422 117.20922852 C71.94279419 127.66519979 71.94279419 127.66519979 66.89086914 129.95666504 C60.8636034 131.56622253 54.81259647 131.43387687 48.625 131.1875 C47.69425659 131.17117523 46.76351318 131.15485046 45.80456543 131.13803101 C28.58451318 130.72802087 28.58451318 130.72802087 23.1015625 125.4453125 C20.29572424 121.55666989 18.64998144 117.27821693 17.08007812 112.77148438 C15.21144225 107.97655796 12.30757135 103.85137651 9.5 99.5625 C8.39751519 97.7928672 7.30113281 96.01941771 6.2109375 94.2421875 C5.67436523 93.36916992 5.13779297 92.49615234 4.58496094 91.59667969 C1.57279222 86.66177111 -1.38183845 81.69250276 -4.34204102 76.72631836 C-8.28485207 70.13568635 -12.34862428 63.62578557 -16.4375 57.125 C-21.53140803 49.0132587 -26.54359595 40.85914465 -31.4375 32.625 C-32.28042603 31.21565186 -32.28042603 31.21565186 -33.14038086 29.77783203 C-33.64964111 28.91528809 -34.15890137 28.05274414 -34.68359375 27.1640625 C-35.13275146 26.40561035 -35.58190918 25.6471582 -36.04467773 24.86572266 C-37 23 -37 23 -37 21 C-36.28457031 20.72027344 -35.56914062 20.44054687 -34.83203125 20.15234375 C-22.68429601 15.26496256 -9.40804601 9.40804601 0 0 Z " fill="#F8A06A" transform="translate(470,707)"/>
<path d="M0 0 C2.475 0.495 2.475 0.495 5 1 C5.22550537 1.81452637 5.22550537 1.81452637 5.45556641 2.64550781 C11.67083495 26.40384162 11.67083495 26.40384162 28.578125 43.08984375 C36.26228532 47.1684831 44.05796031 50.26269641 52.40234375 52.69921875 C53.25957031 53.12847656 54.11679687 53.55773437 55 54 C55.87890625 56.64453125 55.87890625 56.64453125 56 59 C54.39170257 59.64331897 52.78335918 60.28652327 51.17480469 60.92919922 C49.79704281 61.48089472 48.42009988 62.03463939 47.04394531 62.59033203 C44.0973084 63.77768994 41.1580133 64.94384651 38.1640625 66.0078125 C27.89697875 69.69598822 18.75507215 75.90535402 13.87988281 85.92138672 C10.61788189 93.62745661 8.27318121 101.74420664 5.8503418 109.74438477 C5 112 5 112 3 114 C1 113.91430664 1 113.91430664 -1 113 C-2.125 110.99389648 -2.125 110.99389648 -3 108.37109375 C-3.495 106.94120117 -3.495 106.94120117 -4 105.48242188 C-4.495 103.97518555 -4.495 103.97518555 -5 102.4375 C-9.7542446 88.35119323 -14.58159048 76.49717186 -28.5 69.25 C-34.6617031 66.39113121 -40.99470797 64.11283117 -47.49023438 62.12792969 C-52.6876383 60.45785649 -52.6876383 60.45785649 -54.484375 57.82421875 C-54.65453125 57.22222656 -54.8246875 56.62023437 -55 56 C-49.8752951 53.22411818 -44.66340551 51.10364002 -39.1875 49.125 C-24.6195354 43.76255904 -15.32134182 37.91370059 -8.484375 23.578125 C-6.0591641 17.7320903 -4.11397533 11.74030047 -2.19921875 5.7109375 C-1 2 -1 2 0 0 Z " fill="#CC43AD" transform="translate(519,84)"/>
<path d="M0 0 C3.5729242 3.06128828 3.5729242 3.06128828 4.04296875 5.57421875 C3.46589807 9.59151846 1.39012838 12.38061917 -0.86328125 15.65234375 C-1.86753269 17.14993836 -2.87002247 18.64871524 -3.87109375 20.1484375 C-4.42442383 20.97327637 -4.97775391 21.79811523 -5.54785156 22.64794922 C-7.57081299 25.71721371 -9.52908673 28.82225476 -11.48046875 31.9375 C-12.19191894 33.06942291 -12.90350771 34.20125873 -13.61523438 35.33300781 C-15.01283737 37.55927237 -16.40491992 39.78901367 -17.79101562 42.02246094 C-18.44134766 43.05145508 -19.09167969 44.08044922 -19.76171875 45.140625 C-20.33583496 46.05884033 -20.90995117 46.97705566 -21.50146484 47.9230957 C-24.65655847 52.12450873 -27.05072685 54.21483598 -32.30078125 54.96484375 C-35.96602651 55.09278866 -38.12561053 53.41999351 -40.81713867 51.03686523 C-43.75725783 47.92868621 -45.85694243 44.30591214 -48.05078125 40.65234375 C-49.09541165 38.95514868 -50.14100642 37.25854686 -51.1875 35.5625 C-51.97519775 34.27690186 -51.97519775 34.27690186 -52.77880859 32.96533203 C-55.24921945 28.96928069 -57.80264968 25.02847009 -60.36328125 21.08984375 C-61.02976685 20.06068848 -61.02976685 20.06068848 -61.7097168 19.01074219 C-62.3426062 18.03476074 -62.3426062 18.03476074 -62.98828125 17.0390625 C-63.3867627 16.42393799 -63.78524414 15.80881348 -64.19580078 15.17504883 C-64.96886237 14.0012303 -65.75622409 12.83669554 -66.55810547 11.68237305 C-69.35094156 7.65530737 -69.35094156 7.65530737 -69.48828125 4.83984375 C-66.65714561 -1.29428347 -60.87354414 -3.47505345 -54.92578125 -5.80078125 C-39.02671596 -10.74500277 -13.59992293 -10.18051373 0 0 Z " fill="#3A3E4C" transform="translate(551.36328125,842.59765625)"/>
<path d="M0 0 C0.99 0.495 0.99 0.495 2 1 C1.195625 1.268125 0.39125 1.53625 -0.4375 1.8125 C-1.283125 2.204375 -2.12875 2.59625 -3 3 C-3.33 3.99 -3.66 4.98 -4 6 C-6.40948897 7.37223335 -8.73310061 8.55228831 -11.25 9.6875 C-11.91902344 10.00783203 -12.58804688 10.32816406 -13.27734375 10.65820312 C-16.97752165 12.36290198 -19.91115214 13.41997856 -24 13 C-24 13.66 -24 14.32 -24 15 C-24.53367187 15.25168945 -25.06734375 15.50337891 -25.6171875 15.76269531 C-28.07857117 16.92418735 -30.53928799 18.08708573 -33 19.25 C-33.83917969 19.64574219 -34.67835938 20.04148437 -35.54296875 20.44921875 C-40.14652154 22.62609255 -44.72538509 24.83972325 -49.26586914 27.14550781 C-52.12422656 28.55396212 -55.06392806 29.76375918 -58 31 C-64.52362344 33.75894908 -70.8425049 36.8823113 -77.15209961 40.09448242 C-80.33442464 41.70623807 -83.51280296 43.24472313 -86.8046875 44.62109375 C-90.06913341 45.91635973 -90.06913341 45.91635973 -93 48 C-96.34324299 49.29170752 -99.16834214 50.01683421 -102.75 50.375 C-103.8225 50.58125 -104.895 50.7875 -106 51 C-106.31195313 51.64324219 -106.62390625 52.28648437 -106.9453125 52.94921875 C-108 55 -108 55 -109.8828125 55.87109375 C-110.62273437 56.05800781 -111.36265625 56.24492187 -112.125 56.4375 C-115.39122511 57.39662959 -117.94021882 58.45597924 -120.75 60.375 C-125.18123612 63.33211749 -129.96259995 64.97432865 -134.94140625 66.8046875 C-138.57011385 68.22280311 -141.67194866 69.98930232 -145 72 C-145.94875 72.309375 -146.8975 72.61875 -147.875 72.9375 C-148.57625 73.288125 -149.2775 73.63875 -150 74 C-150.89386164 76.54775306 -150.89386164 76.54775306 -151 79 C-150.48953125 79.10183594 -149.9790625 79.20367187 -149.453125 79.30859375 C-146.08889737 80.25679166 -142.94483633 81.66313572 -139.75 83.0625 C-139.1003125 83.34416016 -138.450625 83.62582031 -137.78125 83.91601562 C-136.18630914 84.6079385 -134.59299066 85.303599 -133 86 C-133 86.66 -133 87.32 -133 88 C-132.28593994 88.11480713 -131.57187988 88.22961426 -130.83618164 88.34790039 C-127.82621539 89.03995685 -125.39685592 90.08556259 -122.62109375 91.43359375 C-121.11579102 92.1596582 -121.11579102 92.1596582 -119.58007812 92.90039062 C-118.54302734 93.40763672 -117.50597656 93.91488281 -116.4375 94.4375 C-115.39658203 94.94087891 -114.35566406 95.44425781 -113.28320312 95.96289062 C-109.17671229 97.9514357 -105.07750711 99.95261397 -101 102 C-101 102.66 -101 103.32 -101 104 C-100.05125 104.04125 -99.1025 104.0825 -98.125 104.125 C-93.60793057 104.75211829 -90.39218761 107.04637692 -86.6015625 109.45703125 C-83.42872643 111.33881841 -80.18896936 112.58146848 -76.7409668 113.86254883 C-73.76142188 115.09900556 -71.0040314 116.56068793 -68.18359375 118.125 C-67.2083374 118.66382813 -66.23308105 119.20265625 -65.22827148 119.7578125 C-64.49294189 120.16773438 -63.7576123 120.57765625 -63 121 C-62.81441837 133.37842096 -62.67238032 145.75650955 -62.58550262 158.13603973 C-62.54379929 163.88481375 -62.48725874 169.63263417 -62.39648438 175.38085938 C-62.30938664 180.93117097 -62.26168935 186.48056702 -62.24098206 192.0315094 C-62.2262309 194.14626984 -62.19742383 196.26098166 -62.15415955 198.37535095 C-61.82687015 215.03707893 -61.82687015 215.03707893 -64.76419067 219.9519043 C-66.92431641 222.05664062 -66.92431641 222.05664062 -69.08291626 223.53967285 C-72.21773701 225.92760393 -72.79634475 228.97043764 -73.60449219 232.703125 C-74.45415534 239.78574918 -74.26368645 246.88027583 -74.125 254 C-74.08983443 256.39174072 -74.05911089 258.78342922 -74.03366089 261.17529297 C-74.01678469 262.65226893 -73.99372676 264.12919084 -73.96365356 265.60595703 C-73.91817673 268.70495241 -74.01078587 271.0323576 -75 274 C-74.34 274.33 -73.68 274.66 -73 275 C-73.12568359 276.55460938 -73.12568359 276.55460938 -73.25390625 278.140625 C-73.35710782 279.51039132 -73.45995374 280.88018447 -73.5625 282.25 C-73.61857422 282.93191406 -73.67464844 283.61382813 -73.73242188 284.31640625 C-74.03076991 288.24889442 -74.03076991 288.24889442 -73.46875 292.125 C-72.79011181 294.83955277 -73.38668005 297.02830143 -73.9375 299.75 C-74.13214844 300.73484375 -74.32679688 301.7196875 -74.52734375 302.734375 C-74.68332031 303.48203125 -74.83929688 304.2296875 -75 305 C-74.34 305 -73.68 305 -73 305 C-73.03480469 305.6290625 -73.06960938 306.258125 -73.10546875 306.90625 C-73.37952206 315.57155467 -71.80452478 321.42153859 -66 328 C-65.67 328.66 -65.34 329.32 -65 330 C-61.97065509 330.65772428 -61.97065509 330.65772428 -59 331 C-59 331.66 -59 332.32 -59 333 C-52.25644075 332.56541507 -47.2976176 331.54387644 -41.8125 327.3125 C-36.87737869 321.01596592 -36.48492374 313.99900158 -36.3125 306.3125 C-36.27979004 305.22960693 -36.24708008 304.14671387 -36.21337891 303.03100586 C-35.91541296 291.37801501 -35.89742796 279.71868205 -35.875 268.0625 C-35.87223053 267.11267242 -35.86946106 266.16284485 -35.86660767 265.18423462 C-35.85301784 258.78825493 -35.89459451 252.39513477 -36 246 C-36.01325317 245.09965027 -36.02650635 244.19930054 -36.04016113 243.27166748 C-36.0891729 240.65768698 -36.16802049 238.0464589 -36.2578125 235.43359375 C-36.27141815 234.65427994 -36.2850238 233.87496613 -36.29904175 233.07203674 C-36.51633223 228.08420112 -37.43823809 225.49384208 -41 222 C-42.28857407 221.19236206 -42.28857407 221.19236206 -43.60317993 220.3684082 C-46.37727639 217.62719584 -46.59477997 216.03532282 -46.65542603 212.20489502 C-46.64216278 211.43852722 -46.62889954 210.67215942 -46.61523438 209.88256836 C-46.62078339 209.0675032 -46.6263324 208.25243805 -46.63204956 207.41267395 C-46.64385138 204.72113072 -46.61956857 202.03126895 -46.59375 199.33984375 C-46.59203913 197.4694476 -46.59210434 195.59904905 -46.59387207 193.72865295 C-46.59221859 189.81032345 -46.5735139 185.89256593 -46.54199219 181.97436523 C-46.50228698 176.94799154 -46.49794986 171.92236621 -46.50545502 166.89586544 C-46.50852192 163.03456242 -46.49641466 159.17342817 -46.47932434 155.31216621 C-46.47228604 153.45858379 -46.46917081 151.60498224 -46.47001648 149.75138664 C-46.46822204 147.16325051 -46.44687216 144.57601742 -46.41992188 141.98803711 C-46.42285248 141.21964508 -46.42578308 140.45125305 -46.42880249 139.65957642 C-46.34497977 134.45189438 -46.34497977 134.45189438 -44.47375488 132.00074768 C-43.98741577 131.67050095 -43.50107666 131.34025421 -43 131 C-39.63238971 132.01028309 -36.49985205 133.1941278 -33.37890625 134.796875 C-30.37591263 136.31806017 -27.3565341 137.78965613 -24.30859375 139.21875 C-23.50873047 139.59386719 -22.70886719 139.96898437 -21.88476562 140.35546875 C-20.25004932 141.11998891 -18.61462854 141.88300451 -16.97851562 142.64453125 C-12.1810735 144.89805128 -7.5643337 147.30428614 -3 150 C-3 150.66 -3 151.32 -3 152 C-1.68 152.33 -0.36 152.66 1 153 C1.18899894 190.91318694 1.18899894 190.91318694 0.5 205.375 C0.12398913 213.74876911 -0.22241198 222.11873356 -0.375 230.5 C-0.43204102 232.03213135 -0.43204102 232.03213135 -0.49023438 233.59521484 C-0.56808439 240.47921726 0.75740614 245.47310008 5 251 C5.66 251.33 6.32 251.66 7 252 C7 252.66 7 253.32 7 254 C7.70125 254.2475 8.4025 254.495 9.125 254.75 C12 256 12 256 14.5625 257.8125 C40.71234106 275.46202052 80.87041699 278.52859292 111.63037109 279.65917969 C117.79886002 279.89943001 117.79886002 279.89943001 120 281 C121.34238002 281.09392766 122.68925079 281.12793323 124.03491211 281.12939453 C124.86594955 281.13254669 125.696987 281.13569885 126.5532074 281.13894653 C127.90165489 281.13591019 127.90165489 281.13591019 129.27734375 281.1328125 C130.19963272 281.13376923 131.12192169 281.13472595 132.07215881 281.13571167 C134.02491321 281.1363929 135.97766986 281.13454261 137.93041992 281.13037109 C140.92176401 281.12502811 143.91295752 281.13031489 146.90429688 281.13671875 C148.7994795 281.13605784 150.69466203 281.13477641 152.58984375 281.1328125 C153.48678452 281.13483673 154.38372528 281.13686096 155.30784607 281.13894653 C156.14203568 281.13579437 156.97622528 281.13264221 157.83569336 281.12939453 C158.93584023 281.12820114 158.93584023 281.12820114 160.05821228 281.12698364 C162.21824352 281.06816695 162.21824352 281.06816695 165 280 C189.48986682 277.32657788 189.48986682 277.32657788 195 281 C139.55937263 286.96073551 55.11311366 293.53805217 8.1484375 257.83203125 C2.13999737 252.6633875 -1.79530095 248.0313701 -3 240 C-3.08809296 237.14001345 -3.12644784 234.30543633 -3.11352539 231.44604492 C-3.11367142 230.59675415 -3.11381744 229.74746338 -3.1139679 228.87243652 C-3.11327319 226.07508763 -3.10550149 223.27780596 -3.09765625 220.48046875 C-3.0957905 218.5370538 -3.09436734 216.59363837 -3.09336853 214.65022278 C-3.08955571 209.54239599 -3.07973597 204.43459776 -3.06866455 199.32678223 C-3.05842387 194.11173896 -3.05386522 188.89669106 -3.04882812 183.68164062 C-3.0381126 173.45441455 -3.02105101 163.22720965 -3 153 C-3.9187793 152.70359619 -4.83755859 152.40719238 -5.78417969 152.10180664 C-9.44475749 150.84761687 -12.81656398 149.1999538 -16.25 147.4375 C-22.33669562 144.34116805 -28.43721797 141.27340999 -34.546875 138.22265625 C-35.36591309 137.81341919 -36.18495117 137.40418213 -37.02880859 136.98254395 C-39.01908958 135.98812983 -41.00948799 134.99395158 -43 134 C-43.03152931 144.68396087 -43.02533654 155.36717941 -42.97153378 166.05107117 C-42.94772162 171.01261165 -42.93670241 175.97348151 -42.95532227 180.93505859 C-42.97282856 185.7271137 -42.95620407 190.51796647 -42.91632271 195.30987549 C-42.90705806 197.13419524 -42.90990779 198.95861966 -42.92530632 200.78289795 C-43.39247915 212.19476344 -43.39247915 212.19476344 -38.50610352 222.05859375 C-37.35552265 223.06026488 -36.19057057 224.04620594 -35 225 C-33.34626295 228.30747411 -33.82536162 231.99978082 -33.80712891 235.63720703 C-33.79486267 236.97899269 -33.79486267 236.97899269 -33.78234863 238.34788513 C-33.75747221 241.31785408 -33.7409701 244.28777506 -33.7265625 247.2578125 C-33.72123882 248.27202145 -33.71591515 249.28623039 -33.71043015 250.33117294 C-33.68368485 255.70254511 -33.66431705 261.07389396 -33.64990234 266.4453125 C-33.63327927 271.98697949 -33.58852481 277.52804892 -33.5375309 283.06949043 C-33.50382412 287.33497782 -33.49232094 291.60032424 -33.48667526 295.86593246 C-33.47996898 297.90802434 -33.4647632 299.95010714 -33.44078445 301.99206924 C-33.40906589 304.85734446 -33.40910664 307.72102015 -33.41650391 310.58642578 C-33.40009857 311.42414017 -33.38369324 312.26185455 -33.36679077 313.12495422 C-33.43105521 319.23291582 -35.18320342 323.23870324 -39 328 C-44.07071025 332.69968268 -48.97280952 335.09609833 -56 335 C-62.68897313 333.77826975 -68.11491002 331.85343155 -72.28526306 326.28335571 C-77.61396922 317.44875712 -76.70533846 307.80055856 -76.62890625 297.8359375 C-76.62973615 295.87399158 -76.63220009 293.91204574 -76.63621521 291.95010376 C-76.63906297 287.85323982 -76.62446947 283.75692569 -76.59692383 279.66015625 C-76.56279781 274.42359564 -76.56888415 269.18801438 -76.5875864 263.95140648 C-76.59818041 259.90546582 -76.5891975 255.85975101 -76.57420158 251.81383133 C-76.56903999 249.88343604 -76.56947686 247.95301698 -76.57574654 246.02262497 C-76.58122971 243.32104909 -76.56072691 240.62085208 -76.53344727 237.91943359 C-76.53997314 237.13169052 -76.54649902 236.34394745 -76.55322266 235.53233337 C-76.45844306 229.98009409 -75.27399263 225.55630364 -72 221 C-70.42446804 219.71039867 -70.42446804 219.71039867 -68.79257202 218.56904602 C-65.84132203 215.8540231 -65.58579027 215.57553553 -65.2784729 211.86808777 C-65.26115366 210.21051558 -65.27687339 208.55239483 -65.31884766 206.89526367 C-65.3179715 205.98745148 -65.31709534 205.07963928 -65.31619263 204.14431763 C-65.32036434 201.15131819 -65.36699665 198.16057535 -65.4140625 195.16796875 C-65.42525612 193.0900444 -65.43379552 191.01210419 -65.43978882 188.93415833 C-65.46267391 183.47079583 -65.52159526 178.00839375 -65.5880127 172.54541016 C-65.64944161 166.96855664 -65.67680519 161.3915476 -65.70703125 155.81445312 C-65.77133809 144.87588062 -65.87371443 133.93802024 -66 123 C-66.99872131 122.51578583 -67.99744263 122.03157166 -69.02642822 121.53268433 C-72.78735671 119.70902191 -76.54782523 117.88441268 -80.3081665 116.05953979 C-81.9253131 115.27490459 -83.54257878 114.49051474 -85.15997314 113.70639038 C-94.38455957 109.23402588 -103.59665185 104.74204565 -112.75 100.125 C-121.24141301 95.84533745 -129.79945885 91.72192554 -138.41699219 87.70166016 C-149.54493834 82.45506166 -149.54493834 82.45506166 -154 78 C-153.79505388 75.33570046 -153.48837948 73.59516686 -151.77514648 71.50732422 C-149.58765472 69.64986663 -147.37770999 68.5545223 -144.78515625 67.3203125 C-143.72127686 66.81056885 -142.65739746 66.3008252 -141.5612793 65.77563477 C-140.40668213 65.23092529 -139.25208496 64.68621582 -138.0625 64.125 C-136.84592388 63.54588241 -135.6295372 62.96636671 -134.41333008 62.38647461 C-122.51705968 56.72653526 -110.56045109 51.19505702 -98.60205078 45.66796875 C-93.06535765 43.10414284 -87.53641083 40.52380242 -82.00811768 37.94192505 C-80.11932593 37.05985018 -78.23033973 36.17819293 -76.34130859 35.29663086 C-70.72426598 32.67496736 -65.10814696 30.05136073 -59.49468994 27.42202759 C-52.03829794 23.92951426 -44.57574661 20.45045398 -37.10870361 16.98077393 C-34.84110107 15.92609491 -32.57457914 14.8691143 -30.30810547 13.81201172 C-26.25225691 11.92140953 -22.19231913 10.03982888 -18.12973022 8.16375732 C-16.54920634 7.43234522 -14.9699478 6.69819229 -13.39199829 5.96124268 C-11.19697801 4.93676962 -8.99760584 3.92229105 -6.796875 2.91015625 C-6.13691025 2.59948715 -5.4769455 2.28881805 -4.79698181 1.96873474 C-3.22427623 1.2517716 -1.61446869 0.61719515 0 0 Z " fill="#F1606C" transform="translate(379,304)"/>
<path d="M0 0 C0.99 0.33 1.98 0.66 3 1 C3.88793945 2.91430664 3.88793945 2.91430664 4.61328125 5.41015625 C4.89236328 6.31830078 5.17144531 7.22644531 5.45898438 8.16210938 C6.0196564 10.06736787 6.57705196 11.97359421 7.13085938 13.88085938 C9.86906935 22.75665162 13.60744339 29.26129722 21.83642578 33.94482422 C26.37768223 36.15959632 31.1290736 37.77474721 35.90429688 39.40429688 C36.67708984 39.68466797 37.44988281 39.96503906 38.24609375 40.25390625 C38.94404053 40.49439697 39.6419873 40.7348877 40.36108398 40.98266602 C42 42 42 42 42.73461914 44.10913086 C42.82219482 44.73311768 42.90977051 45.35710449 43 46 C42.01773438 46.34611328 42.01773438 46.34611328 41.015625 46.69921875 C35.85048167 48.544955 30.71660059 50.45956949 25.625 52.5 C24.66851562 52.8815625 23.71203125 53.263125 22.7265625 53.65625 C15.13335043 57.3984634 10.96101311 63.4092041 8.19726562 71.28857422 C7.10462185 74.7020939 6.05797865 78.12281519 5.09204102 81.57446289 C4.74677368 82.77510376 4.74677368 82.77510376 4.39453125 84 C4.19706299 84.721875 3.99959473 85.44375 3.79614258 86.1875 C3 88 3 88 0 90 C-3.09647343 86.51870472 -4.14678871 82.70115213 -5.375 78.3125 C-8.35445783 68.3634191 -11.80616674 59.7193364 -21 54 C-24.50354703 52.52650822 -28.0094993 51.28652806 -31.6328125 50.140625 C-34.94080164 49.02005327 -37.91641244 47.63083354 -41 46 C-41 44.68 -41 43.36 -41 42 C-40.43603516 41.81937012 -39.87207031 41.63874023 -39.29101562 41.45263672 C-36.68861558 40.60914793 -34.09456251 39.74228353 -31.5 38.875 C-30.613125 38.59140625 -29.72625 38.3078125 -28.8125 38.015625 C-21.35281523 35.49249633 -15.33877734 32.43665663 -10.828125 25.80859375 C-10.30734375 24.69613281 -9.7865625 23.58367187 -9.25 22.4375 C-8.96616455 21.83905273 -8.6823291 21.24060547 -8.38989258 20.62402344 C-6.00499215 15.42778794 -4.3115342 10.06542103 -2.82421875 4.546875 C-2 2 -2 2 0 0 Z " fill="#E55B8C" transform="translate(407,162)"/>
<path d="M0 0 C3.36761029 1.01028309 6.50014795 2.1941278 9.62109375 3.796875 C12.62408737 5.31806017 15.6434659 6.78965613 18.69140625 8.21875 C19.89120117 8.78142578 19.89120117 8.78142578 21.11523438 9.35546875 C22.74995068 10.11998891 24.38537146 10.88300451 26.02148438 11.64453125 C30.8189265 13.89805128 35.4356663 16.30428614 40 19 C40 19.66 40 20.32 40 21 C41.32 21.33 42.64 21.66 44 22 C44.18899894 59.91318694 44.18899894 59.91318694 43.5 74.375 C43.12398913 82.74876911 42.77758802 91.11873356 42.625 99.5 C42.58697266 100.5214209 42.54894531 101.5428418 42.50976562 102.59521484 C42.43191561 109.47921726 43.75740614 114.47310008 48 120 C48.99 120.495 48.99 120.495 50 121 C50 121.66 50 122.32 50 123 C51.051875 123.37125 51.051875 123.37125 52.125 123.75 C55 125 55 125 57.5625 126.8125 C83.71234106 144.46202052 123.87041699 147.52859292 154.63037109 148.65917969 C160.79886002 148.89943001 160.79886002 148.89943001 163 150 C164.34238002 150.09392766 165.68925079 150.12793323 167.03491211 150.12939453 C168.28146828 150.13412277 168.28146828 150.13412277 169.5532074 150.13894653 C170.90165489 150.13591019 170.90165489 150.13591019 172.27734375 150.1328125 C173.19963272 150.13376923 174.12192169 150.13472595 175.07215881 150.13571167 C177.02491321 150.1363929 178.97766986 150.13454261 180.93041992 150.13037109 C183.92176401 150.12502811 186.91295752 150.13031489 189.90429688 150.13671875 C191.7994795 150.13605784 193.69466203 150.13477641 195.58984375 150.1328125 C196.48678452 150.13483673 197.38372528 150.13686096 198.30784607 150.13894653 C199.14203568 150.13579437 199.97622528 150.13264221 200.83569336 150.12939453 C201.93584023 150.12820114 201.93584023 150.12820114 203.05821228 150.12698364 C205.21824352 150.06816695 205.21824352 150.06816695 208 149 C232.48986682 146.32657788 232.48986682 146.32657788 238 150 C182.55937263 155.96073551 98.11311366 162.53805217 51.1484375 126.83203125 C45.13999737 121.6633875 41.20469905 117.0313701 40 109 C39.91190704 106.14001345 39.87355216 103.30543633 39.88647461 100.44604492 C39.88632858 99.59675415 39.88618256 98.74746338 39.8860321 97.87243652 C39.88672681 95.07508763 39.89449851 92.27780596 39.90234375 89.48046875 C39.9042095 87.5370538 39.90563266 85.59363837 39.90663147 83.65022278 C39.91044429 78.54239599 39.92026403 73.43459776 39.93133545 68.32678223 C39.94157613 63.11173896 39.94613478 57.89669106 39.95117188 52.68164062 C39.9618874 42.45441455 39.97894899 32.22720965 40 22 C39.0812207 21.70359619 38.16244141 21.40719238 37.21582031 21.10180664 C33.55524251 19.84761687 30.18343602 18.1999538 26.75 16.4375 C20.66330438 13.34116805 14.56278203 10.27340999 8.453125 7.22265625 C7.22456787 6.60880066 7.22456787 6.60880066 5.97119141 5.98254395 C3.98091042 4.98812983 1.99051201 3.99395158 0 3 C-0.03152931 13.68396087 -0.02533654 24.36717941 0.02846622 35.05107117 C0.05227838 40.01261165 0.06329759 44.97348151 0.04467773 49.93505859 C0.02717144 54.7271137 0.04379593 59.51796647 0.08367729 64.30987549 C0.09294194 66.13419524 0.09009221 67.95861966 0.07469368 69.78289795 C-0.39247915 81.19476344 -0.39247915 81.19476344 4.49389648 91.05859375 C5.64447735 92.06026488 6.80942943 93.04620594 8 94 C9.55977064 97.11954128 9.12104126 100.42959384 9.09765625 103.8515625 C9.0962413 104.62559418 9.09482635 105.39962585 9.09336853 106.19711304 C9.08776403 108.67311442 9.07521083 111.14902588 9.0625 113.625 C9.05748558 115.30208203 9.05292257 116.97916547 9.04882812 118.65625 C9.03779315 122.77086806 9.02052554 126.88541878 9 131 C8.67 131 8.34 131 8 131 C7.94054199 129.44889526 7.94054199 129.44889526 7.87988281 127.86645508 C7.72732684 124.01702167 7.54996925 120.1690572 7.36523438 116.32104492 C7.28883626 114.65792925 7.21909842 112.99449335 7.15625 111.33081055 C7.06454201 108.9342228 6.94864553 106.53982204 6.828125 104.14453125 C6.80502258 103.4047554 6.78192017 102.66497955 6.75811768 101.90278625 C6.47965667 96.99531681 5.48302721 94.45256013 2 91 C0.7115921 90.19180313 0.7115921 90.19180313 -0.60284424 89.36727905 C-3.37783582 86.6268733 -3.59478013 85.03531271 -3.65542603 81.20489502 C-3.64216278 80.43852722 -3.62889954 79.67215942 -3.61523438 78.88256836 C-3.62078339 78.0675032 -3.6263324 77.25243805 -3.63204956 76.41267395 C-3.64385138 73.72113072 -3.61956857 71.03126895 -3.59375 68.33984375 C-3.59203913 66.4694476 -3.59210434 64.59904905 -3.59387207 62.72865295 C-3.59221859 58.81032345 -3.5735139 54.89256593 -3.54199219 50.97436523 C-3.50228698 45.94799154 -3.49794986 40.92236621 -3.50545502 35.89586544 C-3.50852192 32.03456242 -3.49641466 28.17342817 -3.47932434 24.31216621 C-3.47228604 22.45858379 -3.46917081 20.60498224 -3.47001648 18.75138664 C-3.46822204 16.16325051 -3.44687216 13.57601742 -3.41992188 10.98803711 C-3.42285248 10.21964508 -3.42578308 9.45125305 -3.42880249 8.65957642 C-3.34497977 3.45189438 -3.34497977 3.45189438 -1.47375488 1.00074768 C-0.98741577 0.67050095 -0.50107666 0.34025421 0 0 Z " fill="#F15F74" transform="translate(336,435)"/>
<path d="M0 0 C7.14714369 2.21731449 13.79484864 5.06950781 20.5625 8.25 C21.67512207 8.76796143 22.78774414 9.28592285 23.93408203 9.81958008 C27.62560015 11.54030631 31.3133795 13.26881551 35 15 C36.33675006 15.62744406 37.67350138 16.25488542 39.01025391 16.88232422 C40.37793706 17.52439836 41.74561279 18.16648831 43.11328125 18.80859375 C43.79325668 19.1278331 44.47323212 19.44707245 45.17381287 19.77598572 C45.855168 20.09587967 46.53652313 20.41577362 47.23852539 20.74536133 C47.92044952 21.06550201 48.60237366 21.3856427 49.30496216 21.71548462 C50.68923336 22.36548863 52.07340842 23.01569741 53.45748901 23.66610718 C61.31942268 27.35993388 69.19105982 31.02516566 77.125 34.5625 C85.01821072 38.08720035 92.88042011 41.67764823 100.72357178 45.31222534 C102.05558216 45.92864273 103.38844547 46.54322099 104.722229 47.15579224 C124.23383607 56.12289838 124.23383607 56.12289838 126.25 61.0625 C125.92634157 64.86548658 124.85688214 65.54774771 122 68 C119.35261154 69.56978989 119.35261154 69.56978989 116.27996826 71.1005249 C115.11331635 71.68660019 113.94666443 72.27267548 112.74465942 72.87651062 C111.45582322 73.51385146 110.16691074 74.15103809 108.87792969 74.78808594 C107.51740734 75.46778269 106.15723736 76.14818515 104.7973938 76.82923889 C101.1112138 78.6729022 97.42018758 80.50666443 93.7282095 82.33868313 C89.86829421 84.25612987 86.01291444 86.18265251 82.15704346 88.10821533 C74.85759349 91.75172661 67.55410367 95.38706216 60.24912572 99.01947522 C51.93164767 103.15585186 43.61871637 107.30132661 35.30615377 111.44757032 C18.20914057 119.9751774 1.10645336 128.49134713 -16 137 C-16.00586624 138.12229004 -16.01173248 139.24458008 -16.01777649 140.40087891 C-16.07506992 150.99415081 -16.14786626 161.58721874 -16.23571491 172.18028259 C-16.28038052 177.62586986 -16.31964517 183.07138297 -16.34643555 188.51708984 C-16.37250634 193.7756875 -16.41293577 199.0339992 -16.46318626 204.29241943 C-16.4798294 206.29535354 -16.49135954 208.29833708 -16.49761391 210.30133057 C-16.50728271 213.11395007 -16.53537534 215.9258422 -16.56762695 218.73828125 C-16.56619186 219.56043625 -16.56475677 220.38259125 -16.5632782 221.22966003 C-16.66518256 227.54220534 -17.82107818 233.03625326 -21.6484375 238.2421875 C-24.89979398 241.31699973 -27.5643465 243.79027632 -32 245 C-31.29875 244.319375 -30.5975 243.63875 -29.875 242.9375 C-22.70009565 236.21378567 -22.70009565 236.21378567 -19.89320374 227.34515381 C-19.89641589 225.73496698 -19.90521028 224.12478597 -19.91821289 222.51464844 C-19.92281273 221.19730461 -19.92281273 221.19730461 -19.92750549 219.85334778 C-19.9346709 217.94192349 -19.94406623 216.03050659 -19.95540047 214.11910248 C-19.97275102 211.09284478 -19.98307788 208.06663962 -19.99131775 205.04034424 C-20.01580282 196.43423482 -20.05127958 187.82819586 -20.09594727 179.22216797 C-20.12275815 173.9614331 -20.13978431 168.7007395 -20.15081596 163.43994904 C-20.15701989 161.43531015 -20.16701787 159.43067925 -20.18089485 157.4260788 C-20.20015127 154.61830955 -20.2070131 151.81075617 -20.21118164 149.00292969 C-20.21994324 148.17672623 -20.22870483 147.35052277 -20.23773193 146.49928284 C-20.2300077 141.9325885 -19.74144181 138.30121668 -18 134 C-17.32324219 133.90847656 -16.64648438 133.81695312 -15.94921875 133.72265625 C-12.27612148 132.82262579 -9.13401215 131.19023107 -5.8125 129.4375 C0.74633072 126 0.74633072 126 3 126 C3 125.34 3 124.68 3 124 C5.97 123.505 5.97 123.505 9 123 C9.495 121.515 9.495 121.515 10 120 C12.19311523 118.68139648 12.19311523 118.68139648 15.05859375 117.37109375 C16.59676758 116.65469727 16.59676758 116.65469727 18.16601562 115.92382812 C19.24560547 115.43333984 20.32519531 114.94285156 21.4375 114.4375 C23.56291212 113.46075279 25.68669583 112.48045192 27.80859375 111.49609375 C29.22869751 110.84918579 29.22869751 110.84918579 30.67749023 110.18920898 C33.11209257 109.09265585 33.11209257 109.09265585 35 107 C36.66666667 107 38.33333333 107 40 107 C40.495 105.515 40.495 105.515 41 104 C43.4206543 102.65380859 43.4206543 102.65380859 46.63671875 101.2734375 C47.8179834 100.75104492 48.99924805 100.22865234 50.21630859 99.69042969 C50.8397113 99.41517456 51.46311401 99.13991943 52.10540771 98.85632324 C55.20095557 97.45718866 58.2345448 95.93917445 61.26953125 94.4140625 C61.88144318 94.1075174 62.4933551 93.80097229 63.12380981 93.48513794 C65.02089946 92.53345945 66.91671357 91.57927147 68.8125 90.625 C70.14215033 89.95764124 71.47190383 89.290488 72.80175781 88.62353516 C75.3854227 87.3274789 77.96859464 86.03044975 80.55126953 84.73242188 C85.40365699 82.2948924 90.2583347 79.86185453 95.12109375 77.44506836 C97.69245858 76.16548433 100.24892597 74.86768171 102.78515625 73.51953125 C108.68181269 70.41171078 114.51129231 68.51732138 121 67 C122.08620411 62.94536298 122.08620411 62.94536298 121.07421875 59.01953125 C117.92875853 55.95700218 114.21562322 54.88450106 110.125 53.4375 C105.10327072 51.61984357 100.55366755 49.82414959 96 47 C93.32251393 45.71988283 90.60125981 44.54694411 87.875 43.375 C86.80185547 42.90707031 86.80185547 42.90707031 85.70703125 42.4296875 C82.82820231 41.18129813 79.97825977 39.99275326 77 39 C77 38.34 77 37.68 77 37 C76.13375 36.89429688 75.2675 36.78859375 74.375 36.6796875 C70.81912679 35.96357415 68.20533329 34.80279164 65 33.125 C64.01 32.61195313 63.02 32.09890625 62 31.5703125 C61.01 31.05210937 60.02 30.53390625 59 30 C57.00185356 28.99630144 55.0023781 27.99522959 53 27 C53 26.34 53 25.68 53 25 C51.77265137 24.62065308 51.77265137 24.62065308 50.52050781 24.23364258 C46.44555688 22.80571421 42.58710194 21.07441276 38.671875 19.26171875 C37.48830414 18.717752 37.48830414 18.717752 36.28082275 18.16279602 C34.61605548 17.39688183 32.95198487 16.62945176 31.28857422 15.8605957 C28.77346915 14.69834528 26.25608303 13.54116059 23.73828125 12.38476562 C15.76216618 8.71386577 7.80515875 5.02601559 0 1 C0 0.67 0 0.34 0 0 Z " fill="#BD368F" transform="translate(680,318)"/>
<path d="M0 0 C0.99 0.495 0.99 0.495 2 1 C1.97381592 1.71019287 1.94763184 2.42038574 1.9206543 3.15209961 C1.81581909 6.41366879 1.7514013 9.67488226 1.6875 12.9375 C1.64560547 14.05447266 1.60371094 15.17144531 1.56054688 16.32226562 C1.45264121 23.68143206 2.32750233 29.12434534 7 35 C7.66 35.33 8.32 35.66 9 36 C9 36.66 9 37.32 9 38 C9.70125 38.2475 10.4025 38.495 11.125 38.75 C14 40 14 40 16.5625 41.8125 C42.71234106 59.46202052 82.87041699 62.52859292 113.63037109 63.65917969 C119.79886002 63.89943001 119.79886002 63.89943001 122 65 C123.34238002 65.09392766 124.68925079 65.12793323 126.03491211 65.12939453 C127.28146828 65.13412277 127.28146828 65.13412277 128.5532074 65.13894653 C129.90165489 65.13591019 129.90165489 65.13591019 131.27734375 65.1328125 C132.19963272 65.13376923 133.12192169 65.13472595 134.07215881 65.13571167 C136.02491321 65.1363929 137.97766986 65.13454261 139.93041992 65.13037109 C142.92176401 65.12502811 145.91295752 65.13031489 148.90429688 65.13671875 C150.7994795 65.13605784 152.69466203 65.13477641 154.58984375 65.1328125 C155.48678452 65.13483673 156.38372528 65.13686096 157.30784607 65.13894653 C158.14203568 65.13579437 158.97622528 65.13264221 159.83569336 65.12939453 C160.93584023 65.12820114 160.93584023 65.12820114 162.05821228 65.12698364 C164.21824352 65.06816695 164.21824352 65.06816695 167 64 C191.48986682 61.32657788 191.48986682 61.32657788 197 65 C141.55937263 70.96073551 57.11311366 77.53805217 10.1484375 41.83203125 C4.72006753 37.16238157 0.41941189 33.11715157 -0.34057617 25.65673828 C-0.32486572 24.47321777 -0.30915527 23.28969727 -0.29296875 22.0703125 C-0.28330078 20.78125 -0.27363281 19.4921875 -0.26367188 18.1640625 C-0.23861188 16.81770214 -0.21321712 15.47134797 -0.1875 14.125 C-0.17243504 12.75522295 -0.15874982 11.38542998 -0.14648438 10.015625 C-0.11121379 6.67667642 -0.06191896 3.33854325 0 0 Z " fill="#F15F70" transform="translate(377,520)"/>
<path d="M0 0 C0.99 0.495 0.99 0.495 2 1 C1.195625 1.268125 0.39125 1.53625 -0.4375 1.8125 C-1.283125 2.204375 -2.12875 2.59625 -3 3 C-3.33 3.99 -3.66 4.98 -4 6 C-6.40948897 7.37223335 -8.73310061 8.55228831 -11.25 9.6875 C-11.91902344 10.00783203 -12.58804688 10.32816406 -13.27734375 10.65820312 C-16.97752165 12.36290198 -19.91115214 13.41997856 -24 13 C-24 13.66 -24 14.32 -24 15 C-24.53367187 15.25168945 -25.06734375 15.50337891 -25.6171875 15.76269531 C-28.07857117 16.92418735 -30.53928799 18.08708573 -33 19.25 C-33.83917969 19.64574219 -34.67835938 20.04148437 -35.54296875 20.44921875 C-40.14652154 22.62609255 -44.72538509 24.83972325 -49.26586914 27.14550781 C-52.12422656 28.55396212 -55.06392806 29.76375918 -58 31 C-64.52362344 33.75894908 -70.8425049 36.8823113 -77.15209961 40.09448242 C-80.33442464 41.70623807 -83.51280296 43.24472313 -86.8046875 44.62109375 C-90.06913341 45.91635973 -90.06913341 45.91635973 -93 48 C-96.34324299 49.29170752 -99.16834214 50.01683421 -102.75 50.375 C-103.8225 50.58125 -104.895 50.7875 -106 51 C-106.31195313 51.64324219 -106.62390625 52.28648437 -106.9453125 52.94921875 C-108 55 -108 55 -109.8828125 55.87109375 C-110.62273437 56.05800781 -111.36265625 56.24492187 -112.125 56.4375 C-115.39122511 57.39662959 -117.94021882 58.45597924 -120.75 60.375 C-125.17949912 63.33095833 -129.95539545 64.97657647 -134.9375 66.79296875 C-137.52465402 67.81265063 -139.71783719 68.90453259 -142.0625 70.375 C-145 72 -145 72 -147.4375 71.75 C-148.2109375 71.37875 -148.2109375 71.37875 -149 71 C-145.17940407 67.67991083 -141.18676892 65.4510554 -136.62109375 63.34765625 C-135.90548782 63.01143753 -135.1898819 62.67521881 -134.45259094 62.32881165 C-132.11720523 61.23354329 -129.7774575 60.14796213 -127.4375 59.0625 C-125.80149315 58.29760358 -124.16575366 57.53213508 -122.53027344 56.76611328 C-118.44166802 54.85325001 -114.34938837 52.94842019 -110.25531006 51.04730225 C-108.19791428 50.0919058 -106.14105205 49.1353749 -104.08447266 48.17822266 C-98.38700706 45.5273131 -92.68676747 42.88248007 -86.984375 40.2421875 C-79.99356355 37.00200821 -73.01674379 33.73241118 -66.04174805 30.45837402 C-51.76789796 23.75838616 -37.48798866 17.07207148 -23.17089844 10.46484375 C-21.07397044 9.49613664 -18.97824386 8.52482416 -16.88378906 7.55078125 C-14.05103002 6.23441942 -11.21384629 4.92817057 -8.375 3.625 C-7.54516602 3.23715332 -6.71533203 2.84930664 -5.86035156 2.44970703 C-3.93345805 1.57230447 -1.96964238 0.77669994 0 0 Z " fill="#EF6075" transform="translate(379,304)"/>
<path d="M0 0 C0.33 0.99 0.66 1.98 1 3 C-0.59427529 4.97799771 -2.39140568 6.63692423 -4.23828125 8.37890625 C-9.91026158 16.81770625 -8.20295426 28.68874416 -8.0625 38.4375 C-8.0348045 40.76464485 -8.01014542 43.09172667 -7.99131775 45.41896057 C-7.97913177 46.85695617 -7.96159876 48.29491918 -7.93800354 49.73277283 C-7.90722084 52.78799739 -8.02464298 55.07392894 -9 58 C-8.34 58.33 -7.68 58.66 -7 59 C-7.12568359 60.55460938 -7.12568359 60.55460938 -7.25390625 62.140625 C-7.35710782 63.51039132 -7.45995374 64.88018447 -7.5625 66.25 C-7.64661133 67.27287109 -7.64661133 67.27287109 -7.73242188 68.31640625 C-8.03076991 72.24889442 -8.03076991 72.24889442 -7.46875 76.125 C-6.79011181 78.83955277 -7.38668005 81.02830143 -7.9375 83.75 C-8.13214844 84.73484375 -8.32679688 85.7196875 -8.52734375 86.734375 C-8.68332031 87.48203125 -8.83929688 88.2296875 -9 89 C-8.34 89 -7.68 89 -7 89 C-7.03480469 89.6290625 -7.06960938 90.258125 -7.10546875 90.90625 C-7.37952206 99.57155467 -5.80452478 105.42153859 0 112 C0.33 112.66 0.66 113.32 1 114 C4.02934491 114.65772428 4.02934491 114.65772428 7 115 C7 115.66 7 116.32 7 117 C13.74355925 116.56541507 18.7023824 115.54387644 24.1875 111.3125 C29.13758678 104.99687204 29.51436121 97.95871 29.6875 90.25 C29.72093506 89.17830566 29.75437012 88.10661133 29.78881836 87.00244141 C30.27968779 68.34430312 30.0816659 49.66254342 30 31 C30.33 31 30.66 31 31 31 C32.23213363 44.46420613 32.2879457 57.96108136 32.35009766 71.47241211 C32.36678271 74.12909834 32.39163361 76.78393724 32.43212891 79.44018555 C32.48688321 83.3132196 32.50875225 87.18522504 32.5234375 91.05859375 C32.54610687 92.23892685 32.56877625 93.41925995 32.59213257 94.63536072 C32.57395488 101.728932 31.72638053 106.55563661 27 112 C21.92928975 116.69968268 17.02719048 119.09609833 10 119 C3.31102687 117.77826975 -2.11491002 115.85343155 -6.28526306 110.28335571 C-11.61396922 101.44875712 -10.70533846 91.80055856 -10.62890625 81.8359375 C-10.62973615 79.87399158 -10.63220009 77.91204574 -10.63621521 75.95010376 C-10.63906297 71.85323982 -10.62446947 67.75692569 -10.59692383 63.66015625 C-10.56279781 58.42359564 -10.56888415 53.18801438 -10.5875864 47.95140648 C-10.59818041 43.90546582 -10.5891975 39.85975101 -10.57420158 35.81383133 C-10.56903999 33.88343604 -10.56947686 31.95301698 -10.57574654 30.02262497 C-10.58122971 27.32104909 -10.56072691 24.62085208 -10.53344727 21.91943359 C-10.53997314 21.13169052 -10.54649902 20.34394745 -10.55322266 19.53233337 C-10.44772503 13.35222622 -8.85959465 7.88324679 -4.41126347 3.39812279 C-2.99114789 2.20295057 -1.50110761 1.09171462 0 0 Z " fill="#F98465" transform="translate(313,520)"/>
<path d="M0 0 C7.14714369 2.21731449 13.79484864 5.06950781 20.5625 8.25 C21.67512207 8.76796143 22.78774414 9.28592285 23.93408203 9.81958008 C27.62560015 11.54030631 31.3133795 13.26881551 35 15 C36.33675006 15.62744406 37.67350138 16.25488542 39.01025391 16.88232422 C40.37793706 17.52439836 41.74561279 18.16648831 43.11328125 18.80859375 C43.79325668 19.1278331 44.47323212 19.44707245 45.17381287 19.77598572 C45.855168 20.09587967 46.53652313 20.41577362 47.23852539 20.74536133 C47.92044952 21.06550201 48.60237366 21.3856427 49.30496216 21.71548462 C50.68923336 22.36548863 52.07340842 23.01569741 53.45748901 23.66610718 C61.31942268 27.35993388 69.19105982 31.02516566 77.125 34.5625 C85.01821072 38.08720035 92.88042011 41.67764823 100.72357178 45.31222534 C102.05558216 45.92864273 103.38844547 46.54322099 104.722229 47.15579224 C124.23383607 56.12289838 124.23383607 56.12289838 126.25 61.0625 C125.92630696 64.86589319 124.85646526 65.5463994 122 68 C119.33726501 69.58869934 119.33726501 69.58869934 116.26928711 71.13208008 C114.54245949 72.00737114 114.54245949 72.00737114 112.78074646 72.90034485 C111.52984552 73.52387523 110.27870546 74.1469261 109.02734375 74.76953125 C107.73966775 75.41598792 106.45220027 76.0628601 105.16493225 76.71012878 C102.47350842 78.06103303 99.77918864 79.40593376 97.08276367 80.74682617 C93.62417288 82.46750085 90.17402052 84.20439055 86.72592831 85.94598866 C84.07264813 87.28359099 81.41477117 88.61183988 78.75543404 89.93735313 C77.48083498 90.5742421 76.20777429 91.21421935 74.93629265 91.85730934 C73.1627728 92.75275122 71.38219581 93.63417452 69.60131836 94.51489258 C68.58968124 95.02023026 67.57804413 95.52556793 66.53575134 96.04621887 C64 97 64 97 61 96 C68.52536951 92.21417592 76.05287174 88.43264091 83.58315849 84.65660858 C87.07945654 82.90323422 90.57499265 81.14837482 94.06884766 79.39013672 C97.43871824 77.69436018 100.81051086 76.0024651 104.18368912 74.3132782 C105.47222683 73.66715733 106.76005797 73.01962542 108.04717636 72.37068176 C109.84583501 71.46412571 111.64721874 70.56298244 113.44873047 69.66210938 C114.47465302 69.14692749 115.50057556 68.63174561 116.55758667 68.10095215 C119 67 119 67 121 67 C122.08620411 62.94536298 122.08620411 62.94536298 121.07421875 59.01953125 C117.92875853 55.95700218 114.21562322 54.88450106 110.125 53.4375 C105.10327072 51.61984357 100.55366755 49.82414959 96 47 C93.32251393 45.71988283 90.60125981 44.54694411 87.875 43.375 C86.80185547 42.90707031 86.80185547 42.90707031 85.70703125 42.4296875 C82.82820231 41.18129813 79.97825977 39.99275326 77 39 C77 38.34 77 37.68 77 37 C76.13375 36.89429688 75.2675 36.78859375 74.375 36.6796875 C70.81912679 35.96357415 68.20533329 34.80279164 65 33.125 C64.01 32.61195313 63.02 32.09890625 62 31.5703125 C61.01 31.05210937 60.02 30.53390625 59 30 C57.00185356 28.99630144 55.0023781 27.99522959 53 27 C53 26.34 53 25.68 53 25 C52.18176758 24.74710205 51.36353516 24.4942041 50.52050781 24.23364258 C46.44555688 22.80571421 42.58710194 21.07441276 38.671875 19.26171875 C37.48830414 18.717752 37.48830414 18.717752 36.28082275 18.16279602 C34.61605548 17.39688183 32.95198487 16.62945176 31.28857422 15.8605957 C28.77346915 14.69834528 26.25608303 13.54116059 23.73828125 12.38476562 C15.76216618 8.71386577 7.80515875 5.02601559 0 1 C0 0.67 0 0.34 0 0 Z " fill="#AE319E" transform="translate(680,318)"/>
<path d="M0 0 C7.09478864 0.35110729 14.05905499 0.97124864 21.07666016 2.04248047 C46.03570595 5.81877896 71.58869285 6.60683785 96.78515625 5.734375 C97.48271027 5.7105928 98.18026428 5.68681061 98.8989563 5.66230774 C102.4185053 5.54154556 105.93741006 5.41314719 109.45605469 5.26831055 C110.74543945 5.219729 112.03482422 5.17114746 113.36328125 5.12109375 C115.10025269 5.05039673 115.10025269 5.05039673 116.87231445 4.97827148 C120 5 120 5 125 6 C125 37.35 125 68.7 125 101 C124.34 100.67 123.68 100.34 123 100 C123 69.31 123 38.62 123 7 C122.01 7.33 121.02 7.66 120 8 C118.01579326 8.09898386 116.02840987 8.13826288 114.04174805 8.14526367 C112.19657845 8.15483345 112.19657845 8.15483345 110.31413269 8.16459656 C108.96332844 8.16612827 107.61252367 8.1672406 106.26171875 8.16796875 C104.86139391 8.17118816 103.4610694 8.17455273 102.06074524 8.17805481 C99.11088284 8.18405373 96.16104971 8.18589468 93.21118164 8.18530273 C90.2293478 8.18522243 87.2476707 8.19200438 84.26586914 8.20581055 C67.07314783 8.284435 50.1027303 8.03124413 33 6 C32.67 6.66 32.34 7.32 32 8 C32 7.34 32 6.68 32 6 C31.01 6.33 30.02 6.66 29 7 C26.90216444 6.6638827 24.81922361 6.23187399 22.75 5.75 C21.51507813 5.47027344 20.28015625 5.19054687 19.0078125 4.90234375 C18.3571582 4.75394043 17.70650391 4.60553711 17.03613281 4.45263672 C13.57695214 3.68365339 10.10131182 2.99907576 6.625 2.3125 C5.35914063 2.06113281 4.09328125 1.80976562 2.7890625 1.55078125 C1.40847656 1.27814453 1.40847656 1.27814453 0 1 C0 0.67 0 0.34 0 0 Z " fill="#E96577" transform="translate(440,602)"/>
<path d="M0 0 C0.99 0.495 0.99 0.495 2 1 C1.195625 1.268125 0.39125 1.53625 -0.4375 1.8125 C-1.283125 2.204375 -2.12875 2.59625 -3 3 C-3.33 3.99 -3.66 4.98 -4 6 C-6.40948897 7.37223335 -8.73310061 8.55228831 -11.25 9.6875 C-12.25353516 10.16799805 -12.25353516 10.16799805 -13.27734375 10.65820312 C-16.97752165 12.36290198 -19.91115214 13.41997856 -24 13 C-24 13.66 -24 14.32 -24 15 C-24.53367187 15.25168945 -25.06734375 15.50337891 -25.6171875 15.76269531 C-28.07857117 16.92418735 -30.53928799 18.08708573 -33 19.25 C-33.83917969 19.64574219 -34.67835938 20.04148437 -35.54296875 20.44921875 C-40.15125725 22.62833192 -44.73575016 24.84386413 -49.28417969 27.14550781 C-57.09229439 31.03401115 -65.5073044 34.0136416 -74 36 C-71.77101051 33.53318667 -69.65976498 32.17016884 -66.66015625 30.7578125 C-65.77626221 30.33806152 -64.89236816 29.91831055 -63.98168945 29.48583984 C-62.53669067 28.81222412 -62.53669067 28.81222412 -61.0625 28.125 C-60.05340576 27.64885254 -59.04431152 27.17270508 -58.00463867 26.68212891 C-54.67331979 25.11370371 -51.3371118 23.55605837 -48 22 C-46.84435547 21.45923828 -45.68871094 20.91847656 -44.49804688 20.36132812 C-37.44692826 17.06303628 -30.38625604 13.78618143 -23.31591797 10.52929688 C-21.15724857 9.53372147 -18.999946 8.53517527 -16.84423828 7.53320312 C-14.02459533 6.22285251 -11.20061735 4.92240566 -8.375 3.625 C-7.54589111 3.23747559 -6.71678223 2.84995117 -5.86254883 2.45068359 C-3.9349184 1.57296576 -1.97038782 0.77699389 0 0 Z " fill="#E95880" transform="translate(379,304)"/>
<path d="M0 0 C-0.92961296 0.4598101 -0.92961296 0.4598101 -1.87800598 0.9289093 C-8.32145471 4.11747594 -14.76068138 7.31444791 -21.19750977 10.51635742 C-23.60073017 11.71126606 -26.00540895 12.90316306 -28.41137695 14.0925293 C-31.86693163 15.80213451 -35.31857036 17.51942587 -38.76953125 19.23828125 C-39.84773636 19.76964188 -40.92594147 20.3010025 -42.03681946 20.84846497 C-43.03763046 21.34875717 -44.03844147 21.84904938 -45.06958008 22.36450195 C-45.95116287 22.80196243 -46.83274567 23.23942291 -47.74104309 23.69013977 C-49.89835027 24.94105822 -51.2977812 26.2064655 -53 28 C-54.90320029 29.09110265 -56.84378543 30.1179267 -58.8046875 31.1015625 C-59.94550781 31.67390625 -61.08632813 32.24625 -62.26171875 32.8359375 C-62.8551709 33.12952148 -63.44862305 33.42310547 -64.06005859 33.72558594 C-65.86625403 34.62066584 -67.66570401 35.52833669 -69.46484375 36.4375 C-70.60824219 37.00726563 -71.75164063 37.57703125 -72.9296875 38.1640625 C-73.97366699 38.68436035 -75.01764648 39.2046582 -76.09326172 39.74072266 C-78.78886489 40.90853058 -81.13364614 41.45603324 -84 42 C-86.21087665 42.93305412 -86.21087665 42.93305412 -88.35546875 44.1015625 C-89.14244141 44.50890625 -89.92941406 44.91625 -90.74023438 45.3359375 C-92.38414019 46.2018416 -94.02736021 47.06904883 -95.66992188 47.9375 C-96.45302734 48.34226562 -97.23613281 48.74703125 -98.04296875 49.1640625 C-98.75477295 49.53998535 -99.46657715 49.9159082 -100.19995117 50.30322266 C-100.79396729 50.53315918 -101.3879834 50.7630957 -102 51 C-102.66 50.67 -103.32 50.34 -104 50 C-100.93967541 48.37087868 -97.87636963 46.747443 -94.8125 45.125 C-93.94818359 44.66480469 -93.08386719 44.20460938 -92.19335938 43.73046875 C-91.35224609 43.28574219 -90.51113281 42.84101563 -89.64453125 42.3828125 C-88.87471924 41.97434082 -88.10490723 41.56586914 -87.31176758 41.14501953 C-85 40 -85 40 -82.3347168 38.97607422 C-79.86330109 38.11639756 -79.86330109 38.11639756 -78 36 C-76.33333333 36 -74.66666667 36 -73 36 C-72.67 35.01 -72.34 34.02 -72 33 C-69.5793457 31.65380859 -69.5793457 31.65380859 -66.36328125 30.2734375 C-65.1820166 29.75104492 -64.00075195 29.22865234 -62.78369141 28.69042969 C-62.1602887 28.41517456 -61.53688599 28.13991943 -60.89459229 27.85632324 C-57.79904443 26.45718866 -54.7654552 24.93917445 -51.73046875 23.4140625 C-51.11855682 23.1075174 -50.5066449 22.80097229 -49.87619019 22.48513794 C-47.97910054 21.53345945 -46.08328643 20.57927147 -44.1875 19.625 C-42.85784967 18.95764124 -41.52809617 18.290488 -40.19824219 17.62353516 C-37.6145773 16.3274789 -35.03140536 15.03044975 -32.44873047 13.73242188 C-27.60219764 11.29783339 -22.75343158 8.86761688 -17.89648438 6.45385742 C-15.22544006 5.12471993 -12.57128572 3.77335487 -9.93359375 2.37890625 C-9.02738281 1.90324219 -8.12117187 1.42757813 -7.1875 0.9375 C-6.43855469 0.53402344 -5.68960938 0.13054687 -4.91796875 -0.28515625 C-3 -1 -3 -1 0 0 Z " fill="#BF3BBA" transform="translate(793,389)"/>
<path d="M0 0 C-18.9037101 2.03244482 -37.55413269 3.08849286 -56.5625 3.125 C-57.35503174 3.12767883 -58.14756348 3.13035767 -58.96411133 3.13311768 C-67.03128875 3.15378883 -74.99654131 3.15513837 -83 2 C-83 1.67 -83 1.34 -83 1 C-82.38025803 0.98969254 -81.76051605 0.97938507 -81.12199402 0.96876526 C-74.68205136 0.86073394 -68.24224957 0.74613309 -61.80249023 0.62768555 C-59.39789777 0.58432591 -56.99327431 0.5426516 -54.58862305 0.50268555 C-51.13580984 0.44500811 -47.68315281 0.38130615 -44.23046875 0.31640625 C-43.15226364 0.29969376 -42.07405853 0.28298126 -40.96318054 0.26576233 C-39.96236954 0.24581711 -38.96155853 0.22587189 -37.93041992 0.20532227 C-37.04883713 0.18977798 -36.16725433 0.1742337 -35.25895691 0.15821838 C-32.8322892 0.0825248 -32.8322892 0.0825248 -30 -1 C-5.51013318 -3.67342212 -5.51013318 -3.67342212 0 0 Z " fill="#E44C6E" transform="translate(574,585)"/>
<path d="M0 0 C7.09376004 0.35105638 14.05720045 0.97059316 21.07373047 2.04223633 C47.42185402 6.02669476 74.39806495 6.27328417 101 7 C101 7.33 101 7.66 101 8 C94.85173668 8.05037654 88.70359992 8.08616811 82.55517578 8.10986328 C80.47442527 8.11976705 78.39368805 8.13329366 76.31298828 8.15087891 C61.74981689 8.27065342 47.47877325 7.58531933 33 6 C32.67 6.66 32.34 7.32 32 8 C32 7.34 32 6.68 32 6 C31.01 6.33 30.02 6.66 29 7 C26.90216444 6.6638827 24.81922361 6.23187399 22.75 5.75 C21.51507813 5.47027344 20.28015625 5.19054687 19.0078125 4.90234375 C18.3571582 4.75394043 17.70650391 4.60553711 17.03613281 4.45263672 C13.57695214 3.68365339 10.10131182 2.99907576 6.625 2.3125 C5.35914063 2.06113281 4.09328125 1.80976562 2.7890625 1.55078125 C1.40847656 1.27814453 1.40847656 1.27814453 0 1 C0 0.67 0 0.34 0 0 Z " fill="#EC555A" transform="translate(440,602)"/>
<path d="M0 0 C0.33 0 0.66 0 1 0 C0.99363525 1.20011719 0.98727051 2.40023438 0.98071289 3.63671875 C0.96621088 8.11752699 0.99774501 12.59706346 1.04272461 17.07763672 C1.05581098 19.01151182 1.05664767 20.94551219 1.04467773 22.87939453 C0.41569773 35.36470904 0.41569773 35.36470904 5.49609375 46.1875 C6.64205395 47.15177822 7.80548064 48.09657278 9 49 C10.55977064 52.11954128 10.12104126 55.42959384 10.09765625 58.8515625 C10.0962413 59.62559418 10.09482635 60.39962585 10.09336853 61.19711304 C10.08776403 63.67311442 10.07521083 66.14902588 10.0625 68.625 C10.05748558 70.30208203 10.05292257 71.97916547 10.04882812 73.65625 C10.03779315 77.77086806 10.02052554 81.88541878 10 86 C9.67 86 9.34 86 9 86 C8.96036133 84.96593018 8.92072266 83.93186035 8.87988281 82.86645508 C8.72732684 79.01702167 8.54996925 75.1690572 8.36523438 71.32104492 C8.28883626 69.65792925 8.21909842 67.99449335 8.15625 66.33081055 C8.06454201 63.9342228 7.94864553 61.53982204 7.828125 59.14453125 C7.80502258 58.4047554 7.78192017 57.66497955 7.75811768 56.90278625 C7.48108298 52.02045345 6.43826851 49.46321219 3 46 C1.36643049 44.62631655 -0.2925002 43.28062485 -2 42 C-1.75885216 41.13196747 -1.75885216 41.13196747 -1.51283264 40.24639893 C-0.68969835 36.64076261 -0.75952762 32.97967909 -0.68359375 29.296875 C-0.66281265 28.45908508 -0.64203156 27.62129517 -0.62062073 26.75811768 C-0.5553745 24.08882644 -0.49635642 21.41943902 -0.4375 18.75 C-0.39429106 16.93749016 -0.35067601 15.12498995 -0.30664062 13.3125 C-0.19971871 8.87509791 -0.09838134 4.43759932 0 0 Z " fill="#F66C6C" transform="translate(335,480)"/>
<path d="M0 0 C0.33 0.66 0.66 1.32 1 2 C-1.27855468 7.78614794 -5.28917908 12.98682834 -8.75 18.125 C-10.50615806 20.74593791 -12.2557363 23.37113171 -14 26 C-14.66878174 27.00498535 -14.66878174 27.00498535 -15.35107422 28.03027344 C-16.65210754 30.00685246 -17.92312043 31.99982596 -19.1875 34 C-19.58614258 34.59828613 -19.98478516 35.19657227 -20.39550781 35.81298828 C-22.49032769 39.19090891 -23.00557448 40.91613325 -22.73828125 44.9375 C-22.49464844 45.948125 -22.25101563 46.95875 -22 48 C-21.113125 48.226875 -20.22625 48.45375 -19.3125 48.6875 C-15.56619468 50.17188513 -13.66270566 52.02403485 -11 55 C-11.33 55.66 -11.66 56.32 -12 57 C-12.53367187 56.52949219 -13.06734375 56.05898438 -13.6171875 55.57421875 C-19.13167679 50.96609016 -23.98676815 48.53734727 -31 47 C-29.515 46.505 -29.515 46.505 -28 46 C-27.30327414 44.34567376 -26.64571607 42.67489492 -26 41 C-24.32832552 38.10416189 -22.50028587 35.30907979 -20.6875 32.5 C-19.61101623 30.81571923 -18.53553412 29.13079793 -17.4609375 27.4453125 C-16.61740723 26.12321777 -16.61740723 26.12321777 -15.75683594 24.77441406 C-12.15132619 19.08055458 -8.63056135 13.3337294 -5.10229492 7.59179688 C-4.57998291 6.74423828 -4.0576709 5.89667969 -3.51953125 5.0234375 C-3.05651611 4.26981934 -2.59350098 3.51620117 -2.11645508 2.73974609 C-1 1 -1 1 0 0 Z " fill="#E55E6A" transform="translate(567,790)"/>
<path d="M0 0 C4.55315948 0.61811534 8.28459767 2.46765893 12.3125 4.5625 C13.28026367 5.0565332 13.28026367 5.0565332 14.26757812 5.56054688 C15.84785228 6.36824255 17.42432105 7.18337613 19 8 C19 8.66 19 9.32 19 10 C19.94875 10.04125 20.8975 10.0825 21.875 10.125 C26.38652649 10.75134875 29.59815 13.0392285 33.3828125 15.44921875 C36.682896 17.40464136 40.07916069 18.70827843 43.66015625 20.0546875 C46.98534558 21.39808619 49.93989141 23.13732521 53 25 C51 26 51 26 48.25 25.1875 C47.1775 24.795625 46.105 24.40375 45 24 C44.06115967 23.70150146 43.12231934 23.40300293 42.1550293 23.09545898 C36.81254779 21.24049384 31.86081121 18.59418141 26.8125 16.0625 C25.72001953 15.52431641 24.62753906 14.98613281 23.50195312 14.43164062 C22.45587891 13.90892578 21.40980469 13.38621094 20.33203125 12.84765625 C19.38046143 12.37336182 18.4288916 11.89906738 17.44848633 11.41040039 C15.19406968 10.11178986 13.76972211 8.86579823 12 7 C9.96727358 5.88159229 7.90094949 4.82304007 5.8125 3.8125 C4.72582031 3.28269531 3.63914062 2.75289063 2.51953125 2.20703125 C1.68808594 1.80871094 0.85664063 1.41039062 0 1 C0 0.67 0 0.34 0 0 Z " fill="#F36577" transform="translate(259,398)"/>
<path d="M0 0 C2.9996784 2.8018974 5.1279842 5.57266405 7.20703125 9.10546875 C7.79419922 10.08966797 8.38136719 11.07386719 8.98632812 12.08789062 C10.19221443 14.13467305 11.39794665 16.18154627 12.60351562 18.22851562 C15.97575177 23.88078057 19.47598229 29.11621923 23.72143555 34.15356445 C25 36 25 36 25 39 C26.485 39.495 26.485 39.495 28 40 C29.39453125 42.37109375 29.39453125 42.37109375 30.8125 45.4375 C33.23928324 50.54106174 35.93246627 55.29389512 38.99609375 60.0390625 C39.32738281 60.68617188 39.65867187 61.33328125 40 62 C39.505 62.99 39.505 62.99 39 64 C38.58637207 63.34402832 38.17274414 62.68805664 37.74658203 62.01220703 C35.875421 59.04809039 34.00026391 56.08652246 32.125 53.125 C31.47402344 52.09246094 30.82304687 51.05992187 30.15234375 49.99609375 C29.52714844 49.00996094 28.90195312 48.02382813 28.2578125 47.0078125 C27.6817627 46.09660645 27.10571289 45.18540039 26.51220703 44.24658203 C25.05592345 41.92809012 25.05592345 41.92809012 23 40 C22.07629006 38.3796895 21.18958306 36.73814535 20.32421875 35.0859375 C17.09591987 29.07638022 13.51342932 23.3521585 9.8125 17.625 C8.58931288 15.72169523 7.36663861 13.81806076 6.14453125 11.9140625 C5.34559448 10.6758374 5.34559448 10.6758374 4.53051758 9.41259766 C0 2.27101611 0 2.27101611 0 0 Z " fill="#F78053" transform="translate(409,731)"/>
<path d="M0 0 C0.66 0.33 1.32 0.66 2 1 C-4.0901688 5.02180959 -10.31752804 8.08475661 -17 11 C-12.78610624 18.97074061 -8.20070433 26.63653818 -3.375 34.25 C-0.90487165 38.15941573 1.55768467 42.07314006 4 46 C4.45729492 46.73283203 4.91458984 47.46566406 5.38574219 48.22070312 C6.32271168 49.7761529 7.17396855 51.3829014 8 53 C7.67 53.66 7.34 54.32 7 55 C-0.30426503 43.69070348 -7.50104368 32.32708813 -14.375 20.75 C-14.93985107 19.80431152 -15.50470215 18.85862305 -16.08666992 17.88427734 C-16.60205322 17.00980957 -17.11743652 16.1353418 -17.6484375 15.234375 C-18.10395996 14.46319336 -18.55948242 13.69201172 -19.02880859 12.89746094 C-20 11 -20 11 -20 9 C-19.2265625 8.68546875 -18.453125 8.3709375 -17.65625 8.046875 C-12.80625614 6.05405574 -8.01508868 4.07346008 -3.375 1.625 C-2.26125 1.08875 -1.1475 0.5525 0 0 Z " fill="#FDC16A" transform="translate(453,719)"/>
<path d="M0 0 C0.33 0.99 0.66 1.98 1 3 C-0.59427529 4.97799771 -2.39140568 6.63692423 -4.23828125 8.37890625 C-9.4163489 16.08286056 -8.21985724 26.40445694 -8.09375 35.31890869 C-8.04113249 39.09657845 -8.02191369 42.87437276 -8.00390625 46.65234375 C-7.99996857 47.38396729 -7.99603088 48.11559082 -7.99197388 48.86938477 C-7.96636542 56.61127297 -8.33149549 64.28832292 -9 72 C-9.33 72 -9.66 72 -10 72 C-10.09301622 64.44564893 -10.16392438 56.89135786 -10.20724869 49.33656311 C-10.22805108 45.82784681 -10.25623163 42.31952467 -10.30175781 38.81103516 C-10.35386357 34.76982007 -10.37300577 30.72901371 -10.390625 26.6875 C-10.41127014 25.4382373 -10.43191528 24.18897461 -10.45318604 22.90185547 C-10.45501078 15.77124788 -9.93524099 11.01839635 -6 5 C-4.09096252 3.09822066 -2.1905432 1.59312233 0 0 Z " fill="#F77360" transform="translate(313,520)"/>
<path d="M0 0 C2.31243128 -0.02742013 4.62496094 -0.04658282 6.9375 -0.0625 C8.22527344 -0.07410156 9.51304687 -0.08570313 10.83984375 -0.09765625 C14.47822526 -0.06778732 18.01504987 0.31414757 21.6237793 0.75268555 C26.7783766 1.2891704 31.97625246 1.36495424 37.15429688 1.51757812 C38.43723633 1.56881836 38.43723633 1.56881836 39.74609375 1.62109375 C40.51622803 1.6461499 41.2863623 1.67120605 42.07983398 1.69702148 C44 2 44 2 46 4 C35.71267927 5.30757675 25.9817441 4.82826711 15.6875 3.6875 C14.48891357 3.55754639 13.29032715 3.42759277 12.05541992 3.29370117 C3.39386818 2.26257879 3.39386818 2.26257879 0 0 Z " fill="#EB536F" transform="translate(453,582)"/>
<path d="M0 0 C1.65 0.33 3.3 0.66 5 1 C5.95911222 4.18726615 6.91714725 7.37485514 7.875 10.5625 C8.14441406 11.45775391 8.41382813 12.35300781 8.69140625 13.27539062 C10.16282697 18.17414499 11.60908108 23.07776752 13 28 C10.28474406 25.65111469 9.28175296 23.57598941 8.17578125 20.18359375 C7.86962891 19.25482422 7.56347656 18.32605469 7.24804688 17.36914062 C6.78495117 15.91797852 6.78495117 15.91797852 6.3125 14.4375 C5.99216797 13.46619141 5.67183594 12.49488281 5.34179688 11.49414062 C3 4.30896855 3 4.30896855 3 2 C0.49789593 4.20290656 -0.51255442 5.89684682 -1.39453125 9.09765625 C-1.6251123 9.89518311 -1.85569336 10.69270996 -2.09326172 11.5144043 C-2.33061035 12.35527588 -2.56795898 13.19614746 -2.8125 14.0625 C-4.98102795 21.38007249 -7.47832636 27.76265586 -12 34 C-12.33 33.34 -12.66 32.68 -13 32 C-12.21885203 30.29788769 -11.34527286 28.63808636 -10.4375 27 C-6.86893562 20.14635532 -4.53776547 13.0595206 -2.19921875 5.7109375 C-1 2 -1 2 0 0 Z " fill="#C03889" transform="translate(519,84)"/>
<path d="M0 0 C0.66 0.33 1.32 0.66 2 1 C-0.6226232 2.33819498 -3.24786599 3.6707151 -5.875 5 C-6.62136719 5.3815625 -7.36773437 5.763125 -8.13671875 6.15625 C-8.85214844 6.5171875 -9.56757813 6.878125 -10.3046875 7.25 C-10.96452637 7.58515625 -11.62436523 7.9203125 -12.30419922 8.265625 C-14 9 -14 9 -16 9 C-16 9.66 -16 10.32 -16 11 C-24.05916655 16.61699487 -34.51536832 19.78163746 -44 22 C-41.69190806 19.4201481 -39.42739712 18.05745471 -36.30859375 16.58203125 C-35.37168701 16.13569336 -34.43478027 15.68935547 -33.46948242 15.22949219 C-32.46892822 14.76188477 -31.46837402 14.29427734 -30.4375 13.8125 C-29.41567627 13.33071289 -28.39385254 12.84892578 -27.34106445 12.35253906 C-24.23165638 10.8923051 -21.11685459 9.44426228 -18 8 C-17.07251953 7.56800293 -16.14503906 7.13600586 -15.18945312 6.69091797 C-12.69365295 5.53294416 -10.19240503 4.38812236 -7.6875 3.25 C-6.935896 2.90300049 -6.18429199 2.55600098 -5.40991211 2.19848633 C-3.63302502 1.40374378 -1.81913529 0.69259675 0 0 Z " fill="#EB5673" transform="translate(349,318)"/>
<path d="M0 0 C3.49939572 4.17141082 6.39822842 8.60337208 9.3125 13.1875 C17.85678121 27.91593653 17.85678121 27.91593653 31 38 C27.12515419 38.46129117 25.42185047 38.28955073 22.16015625 36.05078125 C18.23367617 32.60169774 15.73650719 28.31597998 13.0625 23.875 C12.01725196 22.17427945 10.97168043 20.47375769 9.92578125 18.7734375 C9.42643066 17.95456055 8.92708008 17.13568359 8.41259766 16.29199219 C6.0643612 12.48189128 3.58644012 8.75864323 1.109375 5.03125 C0 3 0 3 0 0 Z " fill="#353234" transform="translate(490,859)"/>
<path d="M0 0 C1 3 1 3 0.1706543 4.84667969 C-0.27366943 5.53149414 -0.71799316 6.21630859 -1.17578125 6.921875 C-1.66965332 7.69345947 -2.16352539 8.46504395 -2.67236328 9.26000977 C-3.48423096 10.49255493 -3.48423096 10.49255493 -4.3125 11.75 C-4.85632324 12.59167725 -5.40014648 13.43335449 -5.96044922 14.30053711 C-7.62890961 16.87467066 -9.31255422 19.43828146 -11 22 C-11.50225098 22.76779785 -12.00450195 23.5355957 -12.52197266 24.32666016 C-20.46657539 36.46657539 -20.46657539 36.46657539 -23 39 C-23.99 38.67 -24.98 38.34 -26 38 C-25.56429687 37.53053955 -25.12859375 37.0610791 -24.6796875 36.57739258 C-20.16976302 31.5909731 -16.49954768 26.41693532 -13 20.6875 C-11.96366348 19.01815354 -10.92720563 17.34888239 -9.890625 15.6796875 C-9.39755859 14.88014648 -8.90449219 14.08060547 -8.39648438 13.25683594 C-6.54086666 10.258002 -4.6487866 7.28417821 -2.75 4.3125 C-2.20859375 3.46300781 -1.6671875 2.61351562 -1.109375 1.73828125 C-0.74328125 1.16464844 -0.3771875 0.59101562 0 0 Z " fill="#383238" transform="translate(548,857)"/>
<path d="M0 0 C-3.14504693 0.34103465 -6.29113417 0.67137463 -9.4375 1 C-10.75524414 1.14308594 -10.75524414 1.14308594 -12.09960938 1.2890625 C-27.85197582 2.91661328 -27.85197582 2.91661328 -33 0 C-24.71338918 -2.76220361 -7.44147182 -4.96098121 0 0 Z " fill="#DE4881" transform="translate(574,585)"/>
<path d="M0 0 C1.56375746 3.12751492 1.19039925 6.44301638 1.1875 9.875 C1.1884668 11.05231689 1.1884668 11.05231689 1.18945312 12.25341797 C1.10885533 21.56063135 0.07975446 30.76424308 -1 40 C-1.33 40 -1.66 40 -2 40 C-2.04963625 35.26775624 -2.08583097 30.53566585 -2.10986328 25.80322266 C-2.11988763 24.19512287 -2.13351066 22.58704115 -2.15087891 20.97900391 C-2.17528488 18.66043624 -2.18651886 16.34211071 -2.1953125 14.0234375 C-2.20563507 13.31069672 -2.21595764 12.59795593 -2.22659302 11.86361694 C-2.2275565 7.52490917 -1.59437933 4.03284183 0 0 Z " fill="#C73CA6" transform="translate(662,452)"/>
<path d="M0 0 C0.66 0 1.32 0 2 0 C10 18.40316206 10 18.40316206 10 25 C13.44216672 22.3401439 13.99504674 19.09711714 15 15 C15.33 15 15.66 15 16 15 C15.64989059 23.19256018 15.64989059 23.19256018 12.9375 26.5625 C12.298125 27.036875 11.65875 27.51125 11 28 C7.86709887 24.48459349 6.76127996 20.55982308 5.5 16.125 C4.05848645 11.11225288 2.39410853 6.66294394 0 2 C0 1.34 0 0.68 0 0 Z " fill="#E34C6E" transform="translate(396,224)"/>
<path d="M0 0 C2.64 0.33 5.28 0.66 8 1 C8 4.48946818 7.22084673 5.67670274 5.4453125 8.6328125 C4.91292969 9.52097656 4.38054688 10.40914062 3.83203125 11.32421875 C3.26871094 12.24847656 2.70539062 13.17273438 2.125 14.125 C1.56941406 15.05699219 1.01382813 15.98898437 0.44140625 16.94921875 C-3.73895334 23.86947667 -3.73895334 23.86947667 -6 25 C-4.1137969 19.64193953 -1.08270728 15.0600229 1.8984375 10.26367188 C4.19766124 6.88213787 4.19766124 6.88213787 5 3 C2.525 2.01 2.525 2.01 0 1 C0 0.67 0 0.34 0 0 Z " fill="#F08777" transform="translate(597,726)"/>
<path d="M0 0 C1.6254308 0.14095064 3.25034051 0.28792087 4.875 0.4375 C5.77992188 0.51871094 6.68484375 0.59992187 7.6171875 0.68359375 C10 1 10 1 12 2 C12 2.66 12 3.32 12 4 C12.94359375 4.18175781 12.94359375 4.18175781 13.90625 4.3671875 C19.31832326 5.42678016 24.66171034 6.61599898 30 8 C30 8.33 30 8.66 30 9 C22.91876778 8.76782845 16.65841766 7.16902816 9.9375 5.0625 C8.65105591 4.66490479 8.65105591 4.66490479 7.33862305 4.25927734 C6.53465088 3.99969238 5.73067871 3.74010742 4.90234375 3.47265625 C4.17523193 3.23812744 3.44812012 3.00359863 2.69897461 2.76196289 C1 2 1 2 0 0 Z " fill="#ED5462" transform="translate(406,570)"/>
<path d="M0 0 C0.53367187 0.18175781 1.06734375 0.36351562 1.6171875 0.55078125 C6.62649204 2.24077154 11.65388977 3.80473187 16.73828125 5.25390625 C19.00105176 6.00034695 20.97312176 6.74270909 23 8 C23.33 8.99 23.66 9.98 24 11 C19.4567205 10.44561173 16.04681161 9.24325295 12 7.125 C11.01 6.61195313 10.02 6.09890625 9 5.5703125 C8.01 5.05210937 7.02 4.53390625 6 4 C4.00185356 2.99630144 2.0023781 1.99522959 0 1 C0 0.67 0 0.34 0 0 Z " fill="#BB39BC" transform="translate(733,344)"/>
<path d="M0 0 C0.33 0.99 0.66 1.98 1 3 C-0.36328125 4.796875 -0.36328125 4.796875 -2.3125 6.75 C-5.74320655 10.44040147 -7.07784365 13.0818328 -8 18 C-10 15 -10 15 -9.4375 11.625 C-7.86105838 7.64962549 -6.18414365 5.79583345 -3 3 C-2.401875 2.401875 -1.80375 1.80375 -1.1875 1.1875 C-0.795625 0.795625 -0.40375 0.40375 0 0 Z " fill="#F7786D" transform="translate(313,520)"/>
<path d="M0 0 C1.5 1.0625 1.5 1.0625 3 3 C3.04166002 5.3329614 3.04166002 7.6670386 3 10 C3.99 11.485 3.99 11.485 5 13 C4.67 13.99 4.34 14.98 4 16 C2.77243105 14.26343905 1.56843147 12.51019623 0.375 10.75 C-0.63433594 9.28820312 -0.63433594 9.28820312 -1.6640625 7.796875 C-3 5 -3 5 -2.2734375 2.703125 C-1 1 -1 1 0 0 Z " fill="#544E4A" transform="translate(485,845)"/>
<path d="M0 0 C0.99 0.33 1.98 0.66 3 1 C2.67 1.99 2.34 2.98 2 4 C1.34 4 0.68 4 0 4 C-0.50660156 5.58941406 -0.50660156 5.58941406 -1.0234375 7.2109375 C-1.47363992 8.59906164 -1.92417825 9.98707687 -2.375 11.375 C-2.59671875 12.07367188 -2.8184375 12.77234375 -3.046875 13.4921875 C-4.7734375 18.7734375 -4.7734375 18.7734375 -7 21 C-6.35551828 16.61486667 -5.35639929 12.48813051 -4.0625 8.25 C-3.72347656 7.12078125 -3.38445312 5.9915625 -3.03515625 4.828125 C-2 2 -2 2 0 0 Z " fill="#DA4C72" transform="translate(407,162)"/>
<path d="M0 0 C2 3.75 2 3.75 2 6 C2.886875 6.226875 3.77375 6.45375 4.6875 6.6875 C8.43380532 8.17188513 10.33729434 10.02403485 13 13 C12.67 13.66 12.34 14.32 12 15 C11.41992188 14.52949219 10.83984375 14.05898438 10.2421875 13.57421875 C5.98186362 10.17861407 2.00165825 7.18021001 -3 5 C-2.01 3.35 -1.02 1.7 0 0 Z " fill="#F1776F" transform="translate(543,832)"/>
<path d="M0 0 C5.3571336 -0.49833801 6.94667976 0.66727003 11 4 C14.60790898 5.80395449 18.29128349 7.41518944 22 9 C18.51163253 10.16278916 18.11031353 9.88366995 14.9375 8.375 C14.15375 8.00632812 13.37 7.63765625 12.5625 7.2578125 C8.36237536 5.19616595 4.16914434 3.1237395 0 1 C0 0.67 0 0.34 0 0 Z " fill="#C13DBE" transform="translate(672,316)"/>
<path d="M0 0 C2.59778161 3.097355 4.99572953 6.31455642 7.3125 9.625 C8.11107422 10.75808594 8.11107422 10.75808594 8.92578125 11.9140625 C9.28027344 12.60242188 9.63476562 13.29078125 10 14 C9.67 14.99 9.34 15.98 9 17 C7.49157829 14.73437454 5.99317749 12.46313837 4.5 10.1875 C4.07074219 9.54490234 3.64148438 8.90230469 3.19921875 8.24023438 C0 3.33984375 0 3.33984375 0 0 Z " fill="#423B3A" transform="translate(490,859)"/>
<path d="M0 0 C1.32 0.66 2.64 1.32 4 2 C-0.50278674 5.26452038 -4.67151345 7.34030747 -10 9 C-10.99 8.67 -11.98 8.34 -13 8 C-12.31292969 7.67386719 -11.62585938 7.34773438 -10.91796875 7.01171875 C-10.01691406 6.57472656 -9.11585938 6.13773437 -8.1875 5.6875 C-7.29417969 5.25824219 -6.40085938 4.82898438 -5.48046875 4.38671875 C-3.21068067 3.11778211 -1.70751829 1.93443102 0 0 Z " fill="#F46D81" transform="translate(256,361)"/>
<path d="M0 0 C0.66 0.33 1.32 0.66 2 1 C-1.48662061 4.87402289 -6.14444792 8.09246168 -11 10 C-11.66 9.67 -12.32 9.34 -13 9 C-8.71 6.03 -4.42 3.06 0 0 Z " fill="#FDB868" transform="translate(468,709)"/>
<path d="M0 0 C0.33 0 0.66 0 1 0 C0.64989059 8.19256018 0.64989059 8.19256018 -2.0625 11.5625 C-2.701875 12.036875 -3.34125 12.51125 -4 13 C-7 9.25 -7 9.25 -7 7 C-6.34 7 -5.68 7 -5 7 C-5 7.99 -5 8.98 -5 10 C-1.55783328 7.3401439 -1.00495326 4.09711714 0 0 Z " fill="#E05079" transform="translate(411,239)"/>
<path d="M0 0 C-0.66 0 -1.32 0 -2 0 C-2 1.65 -2 3.3 -2 5 C-3.98 4.34 -5.96 3.68 -8 3 C-8 2.34 -8 1.68 -8 1 C-4.93251126 -0.86240388 -3.40254489 -1.2151946 0 0 Z " fill="#D750AD" transform="translate(474,139)"/>
<path d="M0 0 C-1.74404788 1.01034498 -3.49549561 2.00792422 -5.25 3 C-6.22453125 3.556875 -7.1990625 4.11375 -8.203125 4.6875 C-11 6 -11 6 -15 6 C-10.83385363 2.52821136 -5.41664933 -1.80554978 0 0 Z " fill="#E65998" transform="translate(419,289)"/>
<path d="M0 0 C0 4.24645065 -1.81750806 6.38524772 -4 10 C-4.5534764 7.92446352 -5 6.15634036 -5 4 C-4.34 4 -3.68 4 -3 4 C-3 3.01 -3 2.02 -3 1 C-2.01 0.67 -1.02 0.34 0 0 Z " fill="#CC5E66" transform="translate(560,839)"/>
<path d="M0 0 C1.32 0.66 2.64 1.32 4 2 C3.67 2.66 3.34 3.32 3 4 C3.66 4.33 4.32 4.66 5 5 C4.01 5.495 4.01 5.495 3 6 C2.01 7.485 2.01 7.485 1 9 C0.63877119 7.68942607 0.28619689 6.37646376 -0.0625 5.0625 C-0.35833984 3.96615234 -0.35833984 3.96615234 -0.66015625 2.84765625 C-0.77230469 2.23792969 -0.88445312 1.62820313 -1 1 C-0.67 0.67 -0.34 0.34 0 0 Z " fill="#F77773" transform="translate(401,589)"/>
<path d="M0 0 C2.66666667 0 5.33333333 0 8 0 C5.14693203 2.32472205 2.45925163 3.7508258 -1 5 C-0.67 3.35 -0.34 1.7 0 0 Z " fill="#B735A1" transform="translate(714,425)"/>
<path d="M0 0 C3.515562 2.343708 4.42274025 4.13571362 6 8 C5.67 8.99 5.34 9.98 5 11 C4.15841464 9.73461631 3.32700252 8.46246221 2.5 7.1875 C1.80390625 6.12595703 1.80390625 6.12595703 1.09375 5.04296875 C0 3 0 3 0 0 Z " fill="#50443E" transform="translate(484,850)"/>
<path d="M0 0 C1.98 0.99 1.98 0.99 4 2 C4 3.98 4 5.96 4 8 C3.01 8 2.02 8 1 8 C1.20625 7.4225 1.4125 6.845 1.625 6.25 C2.08661261 3.48032433 1.42944945 2.35438733 0 0 Z " fill="#BD3AC5" transform="translate(800,375)"/>
<path d="M0 0 C0.66 0.33 1.32 0.66 2 1 C2.625 4.0625 2.625 4.0625 3 7 C2.01 7.495 2.01 7.495 1 8 C0.34 5.69 -0.32 3.38 -1 1 C-0.67 0.67 -0.34 0.34 0 0 Z " fill="#F9875F" transform="translate(402,715)"/>
<path d="M0 0 C0.66 0.66 1.32 1.32 2 2 C1.01 2 0.02 2 -1 2 C-1 2.66 -1 3.32 -1 4 C-2.98 4.33 -4.96 4.66 -7 5 C-4.87219421 2.65941363 -2.88437779 1.29299694 0 0 Z " fill="#F05B6B" transform="translate(265,357)"/>
<path d="M0 0 C4 1 4 1 4 1 Z " fill="#DC5B95" transform="translate(592,600)"/>
<path d="" fill="#584F4D" transform="translate(0,0)"/>
<path d="" fill="#64534E" transform="translate(0,0)"/>
<path d="M0 0 C2 1 2 1 2 1 Z " fill="#EC6387" transform="translate(521,589)"/>
<path d="M0 0 C2 1 2 1 2 1 Z " fill="#E55B8B" transform="translate(549,588)"/>
<path d="" fill="#F07384" transform="translate(0,0)"/>
<path d="M0 0 C2 1 2 1 2 1 Z " fill="#EF7587" transform="translate(266,405)"/>
<path d="" fill="#E86B88" transform="translate(0,0)"/>
<path d="M0 0 C2 1 2 1 2 1 Z " fill="#E56490" transform="translate(392,296)"/>
<path d="M0 0 C2 1 2 1 2 1 Z " fill="#E46294" transform="translate(409,288)"/>
<path d="" fill="#736B62" transform="translate(0,0)"/>
<path d="" fill="#58514D" transform="translate(0,0)"/>
<path d="" fill="#5B514E" transform="translate(0,0)"/>
<path d="" fill="#594E51" transform="translate(0,0)"/>
<path d="" fill="#60514E" transform="translate(0,0)"/>
<path d="" fill="#5D5153" transform="translate(0,0)"/>
<path d="" fill="#62524E" transform="translate(0,0)"/>
<path d="" fill="#5E4F53" transform="translate(0,0)"/>
<path d="" fill="#5D4D52" transform="translate(0,0)"/>
<path d="" fill="#66574D" transform="translate(0,0)"/>
<path d="" fill="#6A564E" transform="translate(0,0)"/>
<path d="" fill="#68554B" transform="translate(0,0)"/>
<path d="" fill="#6F5C50" transform="translate(0,0)"/>
<path d="" fill="#6B554C" transform="translate(0,0)"/>
<path d="" fill="#725B50" transform="translate(0,0)"/>
<path d="" fill="#906556" transform="translate(0,0)"/>
<path d="" fill="#966654" transform="translate(0,0)"/>
<path d="" fill="#9A6B58" transform="translate(0,0)"/>
<path d="" fill="#A85F5E" transform="translate(0,0)"/>
<path d="" fill="#C9815F" transform="translate(0,0)"/>
<path d="" fill="#D48262" transform="translate(0,0)"/>
<path d="" fill="#DD8965" transform="translate(0,0)"/>
<path d="" fill="#DD8A64" transform="translate(0,0)"/>
<path d="" fill="#E38F68" transform="translate(0,0)"/>
<path d="" fill="#E78F67" transform="translate(0,0)"/>
<path d="" fill="#D87279" transform="translate(0,0)"/>
<path d="" fill="#EC9367" transform="translate(0,0)"/>
<path d="" fill="#DA6F79" transform="translate(0,0)"/>
<path d="" fill="#EE9367" transform="translate(0,0)"/>
<path d="" fill="#F1966B" transform="translate(0,0)"/>
<path d="" fill="#F7986D" transform="translate(0,0)"/>
<path d="" fill="#DB6C84" transform="translate(0,0)"/>
<path d="" fill="#F79869" transform="translate(0,0)"/>
<path d="" fill="#F7966B" transform="translate(0,0)"/>
<path d="" fill="#F59969" transform="translate(0,0)"/>
<path d="" fill="#DD647E" transform="translate(0,0)"/>
<path d="" fill="#F3976D" transform="translate(0,0)"/>
<path d="" fill="#F2996E" transform="translate(0,0)"/>
<path d="" fill="#F2996E" transform="translate(0,0)"/>
<path d="" fill="#F3966B" transform="translate(0,0)"/>
<path d="" fill="#EE9B73" transform="translate(0,0)"/>
<path d="" fill="#E56185" transform="translate(0,0)"/>
<path d="" fill="#EF737A" transform="translate(0,0)"/>
<path d="" fill="#EF717B" transform="translate(0,0)"/>
<path d="" fill="#E05892" transform="translate(0,0)"/>
<path d="" fill="#F37B79" transform="translate(0,0)"/>
<path d="" fill="#EB6284" transform="translate(0,0)"/>
<path d="" fill="#EC6586" transform="translate(0,0)"/>
<path d="" fill="#EE6587" transform="translate(0,0)"/>
<path d="" fill="#F57E7A" transform="translate(0,0)"/>
<path d="" fill="#EE6782" transform="translate(0,0)"/>
<path d="" fill="#EE6980" transform="translate(0,0)"/>
<path d="" fill="#DD5495" transform="translate(0,0)"/>
<path d="" fill="#DB529D" transform="translate(0,0)"/>
<path d="" fill="#F5787F" transform="translate(0,0)"/>
<path d="" fill="#F4777F" transform="translate(0,0)"/>
<path d="" fill="#BE44AE" transform="translate(0,0)"/>
<path d="" fill="#F27080" transform="translate(0,0)"/>
<path d="" fill="#F37389" transform="translate(0,0)"/>
<path d="" fill="#BF47B0" transform="translate(0,0)"/>
<path d="" fill="#F37588" transform="translate(0,0)"/>
<path d="" fill="#F17583" transform="translate(0,0)"/>
<path d="" fill="#BA45B2" transform="translate(0,0)"/>
<path d="" fill="#B749B1" transform="translate(0,0)"/>
<path d="" fill="#F07787" transform="translate(0,0)"/>
<path d="" fill="#B349B3" transform="translate(0,0)"/>
<path d="" fill="#E97582" transform="translate(0,0)"/>
<path d="" fill="#EC7584" transform="translate(0,0)"/>
<path d="" fill="#EC7484" transform="translate(0,0)"/>
<path d="" fill="#A649A5" transform="translate(0,0)"/>
<path d="" fill="#EA7285" transform="translate(0,0)"/>
<path d="" fill="#E77086" transform="translate(0,0)"/>
<path d="" fill="#B446B1" transform="translate(0,0)"/>
<path d="" fill="#B242B0" transform="translate(0,0)"/>
<path d="" fill="#EA6C88" transform="translate(0,0)"/>
<path d="" fill="#E8668E" transform="translate(0,0)"/>
<path d="" fill="#BB45AB" transform="translate(0,0)"/>
<path d="" fill="#C64BAB" transform="translate(0,0)"/>
<path d="" fill="#E36794" transform="translate(0,0)"/>
<path d="" fill="#C951A9" transform="translate(0,0)"/>
<path d="" fill="#D6678E" transform="translate(0,0)"/>
<path d="" fill="#C951A7" transform="translate(0,0)"/>
<path d="" fill="#D359AA" transform="translate(0,0)"/>
<path d="" fill="#CF56AC" transform="translate(0,0)"/>
<path d="" fill="#C54EAB" transform="translate(0,0)"/>
</svg>
