<?xml version="1.0" encoding="UTF-8"?>
<svg version="1.1" xmlns="http://www.w3.org/2000/svg" width="256" height="256">
<path d="M0 0 C4.61911367 2.13696234 9.25047484 4.24711635 13.88049316 6.36032104 C14.83172058 6.79523361 15.782948 7.23014618 16.76300049 7.67823792 C25.98206795 11.88540455 35.25414167 15.96759475 44.54043579 20.02377319 C48.80004509 21.88462166 53.05692012 23.75170565 57.31408691 25.61813354 C58.1064122 25.96546539 58.89873749 26.31279724 59.71507263 26.6706543 C61.23693514 27.3377981 62.7587715 28.00500157 64.28057861 28.67227173 C65.65171134 29.27327372 67.0229963 29.8739286 68.39447021 30.47415161 C72.17705113 32.1299802 75.95283375 33.8003126 79.72424316 35.48141479 C80.58308105 35.85596802 81.44191895 36.23052124 82.32678223 36.61642456 C86.32762252 38.41545731 89.76207311 39.96485254 92.41174316 43.60641479 C92.97814941 46.00875854 92.97814941 46.00875854 92.97424316 48.54391479 C92.99615723 49.37793823 93.01807129 50.21196167 93.04064941 51.07125854 C92.14796082 54.66973615 90.3235552 56.47007902 87.41174316 58.60641479 C83.23913706 60.77908119 78.93539277 62.59943241 74.59924316 64.41891479 C73.42941895 64.92100464 72.25959473 65.42309448 71.05432129 65.94039917 C68.17785079 67.17317224 65.29713631 68.39470865 62.41174316 69.60641479 C62.40809753 70.36317001 62.4044519 71.11992523 62.4006958 71.89961243 C62.36268262 79.06385398 62.30568078 86.22758314 62.22784042 93.3914938 C62.18848698 97.07374682 62.15623976 100.75576506 62.14074707 104.4382019 C62.12549948 107.99819139 62.09091363 111.55753489 62.04343414 115.11723518 C62.02157947 117.12267828 62.01927642 119.12830407 62.01739502 121.13386536 C61.88303645 129.58709864 60.97357219 136.16333807 55.59411621 142.87374878 C50.77505872 146.8709515 46.08552219 149.49216956 40.22424316 151.66891479 C38.92220947 152.16633179 38.92220947 152.16633179 37.59387207 152.67379761 C-0.7496293 166.99146083 -43.65865876 170.92729798 -83.58825684 160.60641479 C-83.62950684 161.43141479 -83.67075684 162.25641479 -83.71325684 163.10641479 C-84.89281427 167.82464454 -87.33854107 171.03705485 -90.58825684 174.60641479 C-91.30239746 174.97508667 -92.01653809 175.34375854 -92.75231934 175.72360229 C-95.9042634 178.95602152 -95.14769333 183.21518052 -95.15075684 187.54391479 C-95.15971651 189.3448098 -95.18139033 191.14569658 -95.21716309 192.94625854 C-95.21788818 193.74410767 -95.21861328 194.54195679 -95.21936035 195.36398315 C-95.68298485 198.18224329 -96.64449108 199.53775988 -98.58825684 201.60641479 C-102.92448537 203.05182431 -107.05662871 203.1412481 -111.58825684 202.60641479 C-115.14505855 200.50136888 -116.2829462 199.52234672 -117.58825684 195.60641479 C-117.66592384 194.25662778 -117.6966547 192.90374378 -117.69372559 191.55172729 C-117.7085498 190.77184448 -117.72337402 189.99196167 -117.73864746 189.18844604 C-117.76326637 187.55841529 -117.76866386 185.92797417 -117.75427246 184.29782104 C-117.80519653 179.83176796 -117.80519653 179.83176796 -119.89611816 176.04708862 C-121.40615809 174.82996923 -122.99616488 173.71404443 -124.58825684 172.60641479 C-129.19944745 166.5297499 -130.3556775 160.05416946 -129.58825684 152.60641479 C-128.88122559 150.60641479 -128.88122559 150.60641479 -128.02575684 148.79391479 C-126.4048821 145.85534917 -126.4048821 145.85534917 -126.71325684 143.41891479 C-127.54743533 141.5220189 -127.54743533 141.5220189 -129.02575684 139.79391479 C-133.83502754 133.06093581 -132.93206201 124.47487395 -133.00231934 116.57907104 C-133.02105438 115.22142897 -133.0406295 113.86379826 -133.06100464 112.50617981 C-133.1120855 108.95368175 -133.15183886 105.40114604 -133.18914795 101.84848022 C-133.22933946 98.2149645 -133.28036226 94.58160214 -133.33044434 90.94821167 C-133.42691829 83.83439199 -133.51141324 76.72047583 -133.58825684 69.60641479 C-134.39045654 69.26384644 -135.19265625 68.92127808 -136.01916504 68.56832886 C-139.00314783 67.28765697 -141.98249455 65.99688957 -144.95910645 64.69918823 C-146.24641121 64.14043354 -147.53546721 63.58569517 -148.82629395 63.03512573 C-150.68513916 62.24144539 -152.53719106 61.43191423 -154.38903809 60.62203979 C-155.50447998 60.14025269 -156.61992187 59.65846558 -157.76916504 59.16207886 C-160.64289613 57.5762631 -161.95095693 56.41386352 -163.58825684 53.60641479 C-164.09216309 51.20407104 -164.09216309 51.20407104 -164.15075684 48.66891479 C-164.1932959 47.83489136 -164.23583496 47.00086792 -164.27966309 46.14157104 C-163.26696544 42.42834634 -160.62049847 40.74279849 -157.58825684 38.60641479 C-155.15049697 37.32888601 -152.78979 36.184775 -150.27185059 35.10250854 C-149.55934143 34.78666306 -148.84683228 34.47081757 -148.11273193 34.145401 C-145.75431719 33.10243589 -143.39013423 32.07328228 -141.02575684 31.04391479 C-139.34865043 30.30514402 -137.67198333 29.56537527 -135.99572754 28.82467651 C-132.41330514 27.24300917 -128.82868584 25.66646839 -125.24255371 24.0932312 C-119.46921022 21.55776324 -113.70731113 18.99696475 -107.94763184 16.43063354 C-99.36210367 12.60522504 -90.77288434 8.78828795 -82.18048096 4.97834778 C-77.56052675 2.92883677 -72.9435524 0.87301887 -68.33232117 -1.19604492 C-65.48194082 -2.47427265 -62.62848106 -3.7455989 -59.77575684 -5.01858521 C-58.82338135 -5.44961548 -57.87100586 -5.88064575 -56.88977051 -6.32473755 C-35.90006847 -15.6530616 -19.62919449 -9.08345757 0 0 Z " fill="#474746" transform="translate(163.5882568359375,32.393585205078125)"/>
<path d="M0 0 C0.99 0.66 1.98 1.32 3 2 C3.375 4.9375 3.375 4.9375 3 8 C-0.79900061 12.58618091 -6.76981217 14.55606446 -12.19140625 16.63671875 C-19.25538448 19.44293887 -26.14233731 22.63898785 -33.04882812 25.80810547 C-35.36175796 26.86892656 -37.67683228 27.92495361 -39.9921875 28.98046875 C-53.87248149 34.25035311 -53.87248149 34.25035311 -66 42 C-66.12272849 43.59513893 -66.17781043 45.19554932 -66.20532227 46.79516602 C-66.22526749 47.81614883 -66.24521271 48.83713165 -66.26576233 49.88905334 C-66.28247482 50.9994548 -66.29918732 52.10985626 -66.31640625 53.25390625 C-66.33718735 54.38448959 -66.35796844 55.51507294 -66.37937927 56.67991638 C-66.44499797 60.30737985 -66.50381677 63.93491833 -66.5625 67.5625 C-66.60567351 70.01498186 -66.6492874 72.467456 -66.69335938 74.91992188 C-66.80069184 80.94653427 -66.9024349 86.97322201 -67 93 C-65.57723755 93.4489563 -65.57723755 93.4489563 -64.12573242 93.90698242 C-59.19733629 95.63036206 -56.68299916 98.59366385 -54 103 C-51.69570963 109.38595146 -49.80005468 116.40016404 -52 123 C-56.36097897 130.15682131 -56.36097897 130.15682131 -60.1640625 132.11328125 C-63.31405287 135.35039901 -62.55943467 139.60619277 -62.5625 143.9375 C-62.57145968 145.738395 -62.5931335 147.53928178 -62.62890625 149.33984375 C-62.6299939 150.53661743 -62.6299939 150.53661743 -62.63110352 151.75756836 C-63.09472802 154.57582849 -64.05623425 155.93134509 -66 158 C-70.33622854 159.44540951 -74.46837187 159.5348333 -79 159 C-82.55680172 156.89495409 -83.69468936 155.91593192 -85 152 C-85.077667 150.65021298 -85.10839786 149.29732898 -85.10546875 147.9453125 C-85.12029297 147.16542969 -85.13511719 146.38554687 -85.15039062 145.58203125 C-85.17500953 143.9520005 -85.18040703 142.32155938 -85.16601562 140.69140625 C-85.21693969 136.22535316 -85.21693969 136.22535316 -87.30786133 132.44067383 C-88.81790125 131.22355443 -90.40790805 130.10762963 -92 129 C-96.60342089 122.93357411 -97.82218799 116.43543925 -97 109 C-95.12582134 101.74203421 -91.34367159 97.77894499 -85 94 C-83.6696758 93.32734871 -82.33672732 92.65983506 -81 92 C-81.00079559 91.36852554 -81.00159119 90.73705109 -81.00241089 90.08644104 C-81.00485846 83.48299792 -80.96546872 76.88072274 -80.90234375 70.27758789 C-80.88423359 67.81703117 -80.87660613 65.35637314 -80.87988281 62.89575195 C-80.882754 59.34768041 -80.84728837 55.80168862 -80.8046875 52.25390625 C-80.81378143 51.1629213 -80.82287537 50.07193634 -80.83224487 48.94789124 C-80.69117073 41.44703774 -78.99626497 36.65453509 -74 31 C-69.72537226 27.05486132 -65.01886519 25.06122489 -59.61328125 23.03515625 C-56.94129777 21.97674725 -54.42970871 20.75213505 -51.875 19.4375 C-48.99389297 17.96115634 -46.17877726 16.63510772 -43.125 15.5625 C-39.59594908 14.31233014 -36.33465965 12.70076 -33 11 C-28.3934972 8.65329103 -23.8654085 6.73175557 -19 5 C-15.80098951 3.67488687 -12.6279476 2.29827511 -9.5 0.8125 C-6.2079083 -0.2574298 -3.43919701 -0.25475533 0 0 Z " fill="#ECBD63" transform="translate(131,76)"/>
<path d="M0 0 C8.06788107 3.77276473 15.37083085 10.40977943 20 18 C22.28603084 24.93994801 22.02611516 32.1627582 21.70141602 39.38525391 C21.56101438 42.65964699 21.55784339 45.91438001 21.57226562 49.19140625 C21.53657933 51.28660849 21.49323905 53.38169752 21.44140625 55.4765625 C21.43766495 56.44534332 21.43392365 57.41412415 21.43006897 58.41226196 C21.20303581 62.46126291 21.01770243 65.00530716 18.04147339 67.91424561 C15.74995353 69.4715242 13.48362292 70.77594125 11 72 C10.24388931 72.38088776 9.48777863 72.76177551 8.70875549 73.15420532 C8.14486618 73.43331757 7.58097687 73.71242981 7 74 C-0.66609727 65.72868452 -0.28229173 57.91120709 -0.1953125 46.97265625 C-0.19157681 45.61502797 -0.18873247 44.25739697 -0.18673706 42.89976501 C-0.17914431 39.34712118 -0.15953397 35.79464397 -0.1373291 32.24206543 C-0.11677613 28.6086655 -0.10771524 24.97523833 -0.09765625 21.34179688 C-0.07628339 14.22779691 -0.04220087 7.1139094 0 0 Z " fill="#575757" transform="translate(31,102)"/>
<path d="M0 0 C0.70703125 1.73828125 0.70703125 1.73828125 1 4 C-0.36328125 6.10546875 -0.36328125 6.10546875 -2.3125 8.1875 C-2.94800781 8.88230469 -3.58351562 9.57710937 -4.23828125 10.29296875 C-6 12 -6 12 -8 13 C-8.01458252 13.58491211 -8.02916504 14.16982422 -8.04418945 14.77246094 C-8.1188357 17.43229397 -8.21543899 20.09089448 -8.3125 22.75 C-8.33505859 23.67039063 -8.35761719 24.59078125 -8.38085938 25.5390625 C-8.41630859 26.42851562 -8.45175781 27.31796875 -8.48828125 28.234375 C-8.51446533 29.05131836 -8.54064941 29.86826172 -8.56762695 30.70996094 C-9.09878135 33.52318976 -10.05117795 34.92271262 -12 37 C-16.33622854 38.44540951 -20.46837187 38.5348333 -25 38 C-28.55680172 35.89495409 -29.69468936 34.91593192 -31 31 C-31.08887426 29.6388114 -31.13137612 28.27421178 -31.140625 26.91015625 C-31.15996094 26.12576172 -31.17929687 25.34136719 -31.19921875 24.53320312 C-31.23298758 22.89021984 -31.25129572 21.24684383 -31.25390625 19.60351562 C-31.32570518 17.3002816 -31.43878544 15.23647355 -32 13 C-34.44063283 10.67462717 -34.44063283 10.67462717 -37 9 C-37 7.68 -37 6.36 -37 5 C-35.9378125 4.96261719 -34.875625 4.92523438 -33.78125 4.88671875 C-26.24698184 4.55890949 -19.96742066 4.0966314 -13 1 C-8.62058128 0.01686519 -4.48193706 -0.08963874 0 0 Z " fill="#D86735" transform="translate(77,197)"/>
<path d="M0 0 C3.75732729 0.78815811 5.33747398 2.00956734 8 4.8125 C8.66 5.49957031 9.32 6.18664062 10 6.89453125 C11.37910979 8.34636753 12.75385565 9.80235739 14.125 11.26171875 C15.8183118 13.22662163 15.8183118 13.22662163 18 13 C17.71125 12.37351563 17.4225 11.74703125 17.125 11.1015625 C16.75375 10.28429687 16.3825 9.46703125 16 8.625 C15.62875 7.81289062 15.2575 7.00078125 14.875 6.1640625 C14 4 14 4 14 2 C17.28696233 1.20046862 18.71023192 0.90341064 22 2 C22.08103404 4.91722548 22.14051081 7.83219516 22.1875 10.75 C22.21263672 11.575 22.23777344 12.4 22.26367188 13.25 C22.33756769 19.35872096 22.33756769 19.35872096 20.67578125 22.515625 C17.14456123 25.64351219 12.92089744 25.32823049 8.44921875 25.2890625 C4.98354533 24.88003565 3.28492441 23.57975337 1 21 C0.07811539 18.23434618 -0.11785222 16.61716298 -0.09765625 13.76953125 C-0.09282227 12.56586914 -0.09282227 12.56586914 -0.08789062 11.33789062 C-0.07951172 10.50451172 -0.07113281 9.67113281 -0.0625 8.8125 C-0.05798828 7.96751953 -0.05347656 7.12253906 -0.04882812 6.25195312 C-0.03705403 4.16793845 -0.0191189 2.08396023 0 0 Z " fill="#ECB45E" transform="translate(46,210)"/>
<path d="M0 0 C1.25425781 0.00902344 2.50851563 0.01804688 3.80078125 0.02734375 C4.75339844 0.03894531 5.70601562 0.05054688 6.6875 0.0625 C6.6875 4.0625 6.6875 4.0625 4.5625 6.375 C1.6875 8.0625 1.6875 8.0625 -1.625 7.8125 C-2.511875 7.565 -3.39875 7.3175 -4.3125 7.0625 C-4.03535156 7.57039062 -3.75820313 8.07828125 -3.47265625 8.6015625 C-1.2790317 12.7702298 0.21163155 16.30381553 0.6875 21.0625 C0.3575 20.4025 0.0275 19.7425 -0.3125 19.0625 C-1.43978516 18.65644531 -1.43978516 18.65644531 -2.58984375 18.2421875 C-5.94615378 16.787947 -7.5104909 14.95911588 -9.875 12.1875 C-12.59502677 9.02906336 -15.32714995 5.97338553 -18.3125 3.0625 C-11.98361521 0.85474949 -6.72304016 -0.06283215 0 0 Z " fill="#C34930" transform="translate(64.3125,204.9375)"/>
<path d="M0 0 C4.73789165 1.44323469 8.98858151 3.37226733 13.375 5.625 C14.01566406 5.94984375 14.65632813 6.2746875 15.31640625 6.609375 C16.87947501 7.40257407 18.44000622 8.20077031 20 9 C19.34 11.97 18.68 14.94 18 18 C13.46334263 14.2698595 9.22058878 10.32946434 5.0625 6.1875 C4.31746216 5.44922974 4.31746216 5.44922974 3.55737305 4.69604492 C0 1.12375366 0 1.12375366 0 0 Z " fill="#2F2E2E" transform="translate(33,102)"/>
<path d="M0 0 C1.875 -0.328125 1.875 -0.328125 4 -0.25 C4.70125 -0.23453125 5.4025 -0.2190625 6.125 -0.203125 C8 0 8 0 10 1 C10 1.66 10 2.32 10 3 C8.11197917 3.45572917 6.22395833 3.91145833 4.3359375 4.3671875 C1.90199093 4.98310893 1.90199093 4.98310893 -0.75 6.0625 C-4.73623427 7.21237527 -8.25717742 7.22180234 -12.375 7.125 C-13.47908203 7.11146484 -13.47908203 7.11146484 -14.60546875 7.09765625 C-16.4037888 7.07430144 -18.20193911 7.03843836 -20 7 C-20.33 7.99 -20.66 8.98 -21 10 C-21.33 8.35 -21.66 6.7 -22 5 C-18.535 4.505 -18.535 4.505 -15 4 C-15 3.01 -15 2.02 -15 1 C-14.01 1 -13.02 1 -12 1 C-12 1.66 -12 2.32 -12 3 C-8.33461636 3.94252722 -5.63170285 4.17784957 -2 3 C-1.34 2.01 -0.68 1.02 0 0 Z " fill="#E79851" transform="translate(60,195)"/>
<path d="M0 0 C0.495 1.98 0.495 1.98 1 4 C0.34 4.33 -0.32 4.66 -1 5 C-1 4.34 -1 3.68 -1 3 C-6.14565672 3.31749797 -10.91055635 3.84992045 -15.8125 5.5 C-21.7699784 7.44781989 -27.77262163 7.71693735 -34 8 C-34.33 8.99 -34.66 9.98 -35 11 C-35.66 10.34 -36.32 9.68 -37 9 C-37 7.68 -37 6.36 -37 5 C-35.9378125 4.96261719 -34.875625 4.92523438 -33.78125 4.88671875 C-26.24698184 4.55890949 -19.96742066 4.0966314 -13 1 C-8.62058128 0.01686519 -4.48193706 -0.08963874 0 0 Z " fill="#E07D3E" transform="translate(77,197)"/>
<path d="M0 0 C3.48072283 -0.10628161 6.64566779 0.01529023 10 1 C13.51019136 4.7809002 14.49880213 9.98802134 15 15 C14.67 14.34 14.34 13.68 14 13 C13.25363281 12.73316406 12.50726563 12.46632812 11.73828125 12.19140625 C8.31018053 10.69986457 6.62739375 8.74964951 4.1875 5.9375 C3.39730469 5.03902344 2.60710938 4.14054688 1.79296875 3.21484375 C0 1 0 1 0 0 Z " fill="#DF7D41" transform="translate(50,211)"/>
<path d="M0 0 C0 1.32 0 2.64 0 4 C-2.5 6.25 -2.5 6.25 -5 8 C-5.33 7.01 -5.66 6.02 -6 5 C-5.34 4.67 -4.68 4.34 -4 4 C-13.98650638 3.14107065 -13.98650638 3.14107065 -24 3 C-24 2.67 -24 2.34 -24 2 C-15.96235969 -0.07422976 -8.27015524 -0.2144997 0 0 Z " fill="#CE5631" transform="translate(71,205)"/>
<path d="M0 0 C0.66 0 1.32 0 2 0 C3.32421875 1.64453125 3.32421875 1.64453125 4.6875 3.8125 C5.14511719 4.52019531 5.60273437 5.22789062 6.07421875 5.95703125 C7 8 7 8 6 11 C3.06799526 8.14723863 0.35684596 5.34920216 -2 2 C-1.34 1.34 -0.68 0.68 0 0 Z " fill="#E08345" transform="translate(56,213)"/>
<path d="M0 0 C7.75 -0.125 7.75 -0.125 10 1 C10 1.66 10 2.32 10 3 C5.67940177 4.09845718 1.38332057 5.17812739 -3 6 C-2.01 4.02 -1.02 2.04 0 0 Z " fill="#E59145" transform="translate(60,195)"/>
<path d="M0 0 C3.3 0.33 6.6 0.66 10 1 C6 3 6 3 2 3 C1.34 2.01 0.68 1.02 0 0 Z " fill="#D46A3F" transform="translate(50,211)"/>
</svg>
